<?xml version="1.0" encoding="utf-8"?>
<!-- Generator: Adobe Illustrator 24.1.2, SVG Export Plug-In . SVG Version: 6.00 Build 0)  -->
<svg version="1.1" id="Слой_1" xmlns="http://www.w3.org/2000/svg" xmlns:xlink="http://www.w3.org/1999/xlink" x="0px" y="0px"
	 viewBox="0 0 500 500" style="enable-background:new 0 0 500 500;" xml:space="preserve">
<style type="text/css">
	.st0{fill:url(#SVGID_1_);}
	.st1{fill:url(#SVGID_2_);}
	.st2{fill:url(#SVGID_3_);}
	.st3{fill:url(#SVGID_4_);}
	.st4{fill:url(#SVGID_5_);}
	.st5{fill:url(#SVGID_6_);}
	.st6{fill:url(#SVGID_7_);}
	.st7{fill:url(#SVGID_8_);}
	.st8{fill:url(#SVGID_9_);}
	.st9{fill:url(#SVGID_10_);}
	.st10{fill:url(#SVGID_11_);}
	.st11{fill:url(#SVGID_12_);}
	.st12{fill:url(#SVGID_13_);}
	.st13{fill:url(#SVGID_14_);}
	.st14{fill:url(#SVGID_15_);}
	.st15{fill:url(#SVGID_16_);}
	.st16{fill:url(#SVGID_17_);}
	.st17{fill:url(#SVGID_18_);}
	.st18{fill:url(#SVGID_19_);}
	.st19{fill:url(#SVGID_20_);}
	.st20{fill:url(#SVGID_21_);}
	.st21{fill:url(#SVGID_22_);}
	.st22{fill:url(#SVGID_23_);}
	.st23{fill:url(#SVGID_24_);}
	.st24{fill:url(#SVGID_25_);}
	.st25{fill:url(#SVGID_26_);}
	.st26{fill:url(#SVGID_27_);}
	.st27{fill:url(#SVGID_28_);}
	.st28{fill:url(#SVGID_29_);}
	.st29{fill:url(#SVGID_30_);}
	.st30{fill:url(#SVGID_31_);}
	.st31{fill:url(#SVGID_32_);}
	.st32{fill:url(#SVGID_33_);}
	.st33{fill:url(#SVGID_34_);}
	.st34{fill:url(#SVGID_35_);}
	.st35{fill:url(#SVGID_36_);}
	.st36{fill:url(#SVGID_37_);}
	.st37{fill:url(#SVGID_38_);}
	.st38{fill:url(#SVGID_39_);}
	.st39{fill:url(#SVGID_40_);}
	.st40{fill:url(#SVGID_41_);}
	.st41{fill:url(#SVGID_42_);}
	.st42{fill:url(#SVGID_43_);}
	.st43{fill:url(#SVGID_44_);}
	.st44{fill:url(#SVGID_45_);}
	.st45{fill:url(#SVGID_46_);}
	.st46{fill:url(#SVGID_47_);}
	.st47{fill:url(#SVGID_48_);}
	.st48{fill:url(#SVGID_49_);}
	.st49{fill:url(#SVGID_50_);}
	.st50{fill:url(#SVGID_51_);}
	.st51{fill:url(#SVGID_52_);}
	.st52{fill:url(#SVGID_53_);}
	.st53{fill:url(#SVGID_54_);}
	.st54{fill:url(#SVGID_55_);}
	.st55{fill:url(#SVGID_56_);}
	.st56{fill:url(#SVGID_57_);}
	.st57{fill:url(#SVGID_58_);}
	.st58{fill:url(#SVGID_59_);}
	.st59{fill:url(#SVGID_60_);}
	.st60{fill:url(#SVGID_61_);}
	.st61{fill:url(#SVGID_62_);}
	.st62{fill:url(#SVGID_63_);}
	.st63{fill:url(#SVGID_64_);}
	.st64{fill:url(#SVGID_65_);}
	.st65{fill:url(#SVGID_66_);}
	.st66{fill:url(#SVGID_67_);}
	.st67{fill:url(#SVGID_68_);}
	.st68{fill:url(#SVGID_69_);}
	.st69{fill:url(#SVGID_70_);}
	.st70{fill:url(#SVGID_71_);}
	.st71{fill:url(#SVGID_72_);}
	.st72{fill:url(#SVGID_73_);}
	.st73{fill:url(#SVGID_74_);}
	.st74{fill:url(#SVGID_75_);}
	.st75{fill:url(#SVGID_76_);}
	.st76{fill:url(#SVGID_77_);}
	.st77{fill:url(#SVGID_78_);}
	.st78{fill:url(#SVGID_79_);}
	.st79{fill:url(#SVGID_80_);}
	.st80{fill:url(#SVGID_81_);}
	.st81{fill:url(#SVGID_82_);}
	.st82{fill:url(#SVGID_83_);}
	.st83{fill:url(#SVGID_84_);}
	.st84{fill:url(#SVGID_85_);}
	.st85{fill:url(#SVGID_86_);}
	.st86{fill:url(#SVGID_87_);}
	.st87{fill:url(#SVGID_88_);}
	.st88{fill:url(#SVGID_89_);}
	.st89{fill:url(#SVGID_90_);}
	.st90{fill:url(#SVGID_91_);}
	.st91{fill:url(#SVGID_92_);}
	.st92{fill:url(#SVGID_93_);}
	.st93{fill:url(#SVGID_94_);}
	.st94{fill:url(#SVGID_95_);}
	.st95{fill:url(#SVGID_96_);}
	.st96{fill:url(#SVGID_97_);}
	.st97{fill:url(#SVGID_98_);}
	.st98{fill:url(#SVGID_99_);}
	.st99{fill:url(#SVGID_100_);}
	.st100{fill:url(#SVGID_101_);}
	.st101{fill:url(#SVGID_102_);}
	.st102{fill:url(#SVGID_103_);}
	.st103{fill:url(#SVGID_104_);}
	.st104{fill:url(#SVGID_105_);}
	.st105{fill:url(#SVGID_106_);}
	.st106{fill:url(#SVGID_107_);}
	.st107{fill:url(#SVGID_108_);}
	.st108{fill:url(#SVGID_109_);}
	.st109{fill:url(#SVGID_110_);}
	.st110{fill:url(#SVGID_111_);}
	.st111{fill:url(#SVGID_112_);}
	.st112{fill:url(#SVGID_113_);}
	.st113{fill:url(#SVGID_114_);}
	.st114{fill:url(#SVGID_115_);}
	.st115{fill:url(#SVGID_116_);}
	.st116{fill:url(#SVGID_117_);}
	.st117{fill:url(#SVGID_118_);}
	.st118{fill:url(#SVGID_119_);}
	.st119{fill:url(#SVGID_120_);}
	.st120{fill:url(#SVGID_121_);}
	.st121{fill:url(#SVGID_122_);}
	.st122{fill:url(#SVGID_123_);}
	.st123{fill:url(#SVGID_124_);}
	.st124{fill:url(#SVGID_125_);}
	.st125{fill:url(#SVGID_126_);}
	.st126{fill:url(#SVGID_127_);}
	.st127{fill:url(#SVGID_128_);}
	.st128{fill:url(#SVGID_129_);}
</style>
<g>
	<linearGradient id="SVGID_1_" gradientUnits="userSpaceOnUse" x1="112.5371" y1="178.219" x2="178.7251" y2="178.219">
		<stop  offset="0" style="stop-color:#F7E17B"/>
		<stop  offset="1" style="stop-color:#B8A218"/>
	</linearGradient>
	<path class="st0" d="M178.73,194.25c0,6.78-2.54,12.03-7.63,15.74c-5.09,3.71-12.15,5.56-21.2,5.56h-37.36v-74.67h34.18
		c9.11,0,16.01,1.58,20.69,4.74c4.68,3.16,7.02,7.83,7.02,14.02c0,4.24-1.17,7.82-3.52,10.73c-2.35,2.91-5.93,4.88-10.73,5.91
		c6.04,0.71,10.64,2.61,13.8,5.7C177.14,185.07,178.73,189.16,178.73,194.25z M158.69,161.76c0-3.36-1.07-5.74-3.21-7.15
		c-2.14-1.41-5.31-2.12-9.51-2.12h-17.81v18.49h17.91c4.42,0,7.62-0.77,9.62-2.31C157.7,167.14,158.69,164.84,158.69,161.76z
		 M163.04,193.03c0-6.99-5.02-10.49-15.05-10.49h-19.82v21.41h20.4c5.02,0,8.68-0.91,11-2.73
		C161.88,199.4,163.04,196.67,163.04,193.03z"/>
	<linearGradient id="SVGID_2_" gradientUnits="userSpaceOnUse" x1="190.9131" y1="178.219" x2="251.8027" y2="178.219">
		<stop  offset="0" style="stop-color:#F7E17B"/>
		<stop  offset="1" style="stop-color:#B8A218"/>
	</linearGradient>
	<path class="st1" d="M190.91,215.55v-74.67h58.72v12.08h-43.08v18.76h39.85v12.08h-39.85v19.66h45.26v12.08H190.91z"/>
	<linearGradient id="SVGID_3_" gradientUnits="userSpaceOnUse" x1="259.168" y1="178.1926" x2="324.1895" y2="178.1926">
		<stop  offset="0" style="stop-color:#F7E17B"/>
		<stop  offset="1" style="stop-color:#B8A218"/>
	</linearGradient>
	<path class="st2" d="M324.19,194.04c0,7.31-2.71,12.9-8.13,16.77c-5.42,3.87-13.38,5.8-23.87,5.8c-9.57,0-17.08-1.7-22.52-5.09
		c-5.44-3.39-8.94-8.53-10.49-15.42l15.1-2.49c1.02,3.96,3.02,6.83,5.99,8.61c2.97,1.78,7.08,2.68,12.35,2.68
		c10.92,0,16.38-3.32,16.38-9.96c0-2.12-0.63-3.87-1.88-5.25c-1.25-1.38-3.02-2.53-5.3-3.44c-2.28-0.92-6.65-2.03-13.12-3.34
		c-5.58-1.31-9.47-2.36-11.66-3.15c-2.19-0.79-4.17-1.73-5.94-2.81c-1.77-1.08-3.27-2.38-4.5-3.9c-1.24-1.52-2.2-3.3-2.89-5.35
		c-0.69-2.05-1.03-4.4-1.03-7.05c0-6.75,2.53-11.91,7.6-15.5c5.07-3.59,12.44-5.38,22.12-5.38c9.26,0,16.21,1.45,20.85,4.35
		c4.65,2.9,7.64,7.68,8.98,14.36l-15.16,2.07c-0.78-3.21-2.36-5.63-4.74-7.26c-2.38-1.62-5.8-2.44-10.25-2.44
		c-9.47,0-14.2,2.97-14.2,8.9c0,1.94,0.5,3.53,1.51,4.77c1.01,1.24,2.5,2.29,4.48,3.15c1.98,0.87,5.99,1.95,12.03,3.26
		c7.17,1.52,12.3,2.92,15.39,4.21c3.09,1.29,5.54,2.79,7.34,4.5c1.8,1.71,3.18,3.76,4.13,6.15S324.19,190.93,324.19,194.04z"/>
	<linearGradient id="SVGID_4_" gradientUnits="userSpaceOnUse" x1="329.6475" y1="178.219" x2="393.5566" y2="178.219">
		<stop  offset="0" style="stop-color:#F7E17B"/>
		<stop  offset="1" style="stop-color:#B8A218"/>
	</linearGradient>
	<path class="st3" d="M369.39,152.97v62.58h-15.63v-62.58h-24.11v-12.08h63.91v12.08H369.39z"/>
</g>
<g>
	<linearGradient id="SVGID_5_" gradientUnits="userSpaceOnUse" x1="115.7441" y1="342.4631" x2="114.1789" y2="265.7674">
		<stop  offset="0" style="stop-color:#F7E17B"/>
		<stop  offset="1" style="stop-color:#B8A218"/>
	</linearGradient>
	<path class="st4" d="M111.39,253.42v5.15h8.51v2.69h-8.51v6.1h-3.48v-16.63h12.26v2.69H111.39z"/>
	<linearGradient id="SVGID_6_" gradientUnits="userSpaceOnUse" x1="131.8722" y1="342.1339" x2="130.307" y2="265.4383">
		<stop  offset="0" style="stop-color:#F7E17B"/>
		<stop  offset="1" style="stop-color:#B8A218"/>
	</linearGradient>
	<path class="st5" d="M134.1,267.36l-3.86-6.31h-4.08v6.31h-3.48v-16.63h8.31c1.98,0,3.51,0.43,4.59,1.28
		c1.08,0.85,1.62,2.08,1.62,3.68c0,1.16-0.33,2.17-0.99,3.02c-0.66,0.85-1.55,1.4-2.68,1.67l4.5,6.99H134.1z M133.69,255.83
		c0-1.6-1.02-2.4-3.07-2.4h-4.46v4.91h4.56c0.98,0,1.72-0.22,2.22-0.66S133.69,256.63,133.69,255.83z"/>
	<linearGradient id="SVGID_7_" gradientUnits="userSpaceOnUse" x1="148.4567" y1="341.7955" x2="146.8915" y2="265.0998">
		<stop  offset="0" style="stop-color:#F7E17B"/>
		<stop  offset="1" style="stop-color:#B8A218"/>
	</linearGradient>
	<path class="st6" d="M140.13,267.36v-16.63h13.08v2.69h-9.59v4.18h8.88v2.69h-8.88v4.38h10.08v2.69H140.13z"/>
	<linearGradient id="SVGID_8_" gradientUnits="userSpaceOnUse" x1="164.5716" y1="341.4666" x2="163.0063" y2="264.7709">
		<stop  offset="0" style="stop-color:#F7E17B"/>
		<stop  offset="1" style="stop-color:#B8A218"/>
	</linearGradient>
	<path class="st7" d="M156.25,267.36v-16.63h13.08v2.69h-9.59v4.18h8.88v2.69h-8.88v4.38h10.08v2.69H156.25z"/>
	<linearGradient id="SVGID_9_" gradientUnits="userSpaceOnUse" x1="186.7873" y1="341.0132" x2="185.2221" y2="264.3176">
		<stop  offset="0" style="stop-color:#F7E17B"/>
		<stop  offset="1" style="stop-color:#B8A218"/>
	</linearGradient>
	<path class="st8" d="M189.95,267.36l-1.48-4.25h-6.34l-1.48,4.25h-3.48l6.07-16.63h4.11l6.04,16.63H189.95z M185.3,253.29
		l-0.07,0.26c-0.08,0.28-0.17,0.61-0.28,0.97c-0.11,0.36-0.79,2.35-2.03,5.97h4.78l-1.64-4.78l-0.51-1.61L185.3,253.29z"/>
	<linearGradient id="SVGID_10_" gradientUnits="userSpaceOnUse" x1="204.098" y1="340.6599" x2="202.5328" y2="263.9643">
		<stop  offset="0" style="stop-color:#F7E17B"/>
		<stop  offset="1" style="stop-color:#B8A218"/>
	</linearGradient>
	<path class="st9" d="M209.32,256c0,1.07-0.24,2.03-0.73,2.87s-1.19,1.49-2.09,1.95c-0.91,0.46-1.99,0.69-3.24,0.69h-4.13v5.85
		h-3.48v-16.63h7.47c1.99,0,3.52,0.46,4.6,1.38C208.79,253.02,209.32,254.32,209.32,256z M205.82,256.05c0-1.75-1.03-2.62-3.09-2.62
		h-3.6v5.39h3.69c0.96,0,1.7-0.24,2.22-0.71C205.56,257.64,205.82,256.95,205.82,256.05z"/>
	<linearGradient id="SVGID_11_" gradientUnits="userSpaceOnUse" x1="220.2129" y1="340.3311" x2="218.6477" y2="263.6354">
		<stop  offset="0" style="stop-color:#F7E17B"/>
		<stop  offset="1" style="stop-color:#B8A218"/>
	</linearGradient>
	<path class="st10" d="M225.45,256c0,1.07-0.24,2.03-0.73,2.87s-1.19,1.49-2.09,1.95c-0.91,0.46-1.99,0.69-3.24,0.69h-4.13v5.85
		h-3.48v-16.63h7.47c1.99,0,3.52,0.46,4.6,1.38C224.91,253.02,225.45,254.32,225.45,256z M221.94,256.05c0-1.75-1.03-2.62-3.09-2.62
		h-3.6v5.39h3.69c0.96,0,1.7-0.24,2.22-0.71C221.68,257.64,221.94,256.95,221.94,256.05z"/>
	<linearGradient id="SVGID_12_" gradientUnits="userSpaceOnUse" x1="235.7857" y1="340.0132" x2="234.2205" y2="263.3176">
		<stop  offset="0" style="stop-color:#F7E17B"/>
		<stop  offset="1" style="stop-color:#B8A218"/>
	</linearGradient>
	<path class="st11" d="M241.45,262.57c0,1.63-0.61,2.87-1.81,3.74c-1.21,0.86-2.98,1.29-5.32,1.29c-2.13,0-3.8-0.38-5.02-1.13
		c-1.21-0.76-1.99-1.9-2.34-3.43l3.36-0.55c0.23,0.88,0.67,1.52,1.33,1.92c0.66,0.4,1.58,0.6,2.75,0.6c2.43,0,3.65-0.74,3.65-2.22
		c0-0.47-0.14-0.86-0.42-1.17c-0.28-0.31-0.67-0.56-1.18-0.77s-1.48-0.45-2.92-0.74c-1.24-0.29-2.11-0.53-2.6-0.7
		c-0.49-0.18-0.93-0.38-1.32-0.63s-0.73-0.53-1-0.87c-0.28-0.34-0.49-0.74-0.64-1.19c-0.15-0.46-0.23-0.98-0.23-1.57
		c0-1.5,0.56-2.65,1.69-3.45c1.13-0.8,2.77-1.2,4.93-1.2c2.06,0,3.61,0.32,4.64,0.97c1.03,0.65,1.7,1.71,2,3.2l-3.38,0.46
		c-0.17-0.72-0.53-1.25-1.06-1.62c-0.53-0.36-1.29-0.54-2.28-0.54c-2.11,0-3.16,0.66-3.16,1.98c0,0.43,0.11,0.79,0.34,1.06
		s0.56,0.51,1,0.7c0.44,0.19,1.33,0.43,2.68,0.73c1.6,0.34,2.74,0.65,3.43,0.94c0.69,0.29,1.23,0.62,1.63,1
		c0.4,0.38,0.71,0.84,0.92,1.37C241.34,261.26,241.45,261.88,241.45,262.57z"/>
	<linearGradient id="SVGID_13_" gradientUnits="userSpaceOnUse" x1="258.2818" y1="339.5541" x2="256.7166" y2="262.8585">
		<stop  offset="0" style="stop-color:#F7E17B"/>
		<stop  offset="1" style="stop-color:#B8A218"/>
	</linearGradient>
	<path class="st12" d="M258.23,253.42v13.94h-3.48v-13.94h-5.37v-2.69h14.23v2.69H258.23z"/>
	<linearGradient id="SVGID_14_" gradientUnits="userSpaceOnUse" x1="274.4625" y1="339.2239" x2="272.8973" y2="262.5283">
		<stop  offset="0" style="stop-color:#F7E17B"/>
		<stop  offset="1" style="stop-color:#B8A218"/>
	</linearGradient>
	<path class="st13" d="M281.22,258.97c0,1.73-0.34,3.25-1.03,4.57c-0.68,1.31-1.66,2.32-2.94,3.02s-2.76,1.04-4.46,1.04
		c-2.61,0-4.66-0.77-6.14-2.31s-2.22-3.64-2.22-6.32c0-2.67,0.74-4.75,2.22-6.24c1.48-1.49,3.54-2.24,6.17-2.24s4.7,0.76,6.18,2.27
		C280.48,254.26,281.22,256.33,281.22,258.97z M277.67,258.97c0-1.79-0.42-3.2-1.27-4.22c-0.85-1.02-2.04-1.53-3.58-1.53
		c-1.56,0-2.76,0.51-3.61,1.52s-1.28,2.42-1.28,4.23c0,1.83,0.44,3.26,1.3,4.31c0.87,1.05,2.06,1.58,3.56,1.58
		c1.56,0,2.76-0.51,3.61-1.53C277.25,262.3,277.67,260.85,277.67,258.97z"/>
	<linearGradient id="SVGID_15_" gradientUnits="userSpaceOnUse" x1="299.6963" y1="338.709" x2="298.1311" y2="262.0133">
		<stop  offset="0" style="stop-color:#F7E17B"/>
		<stop  offset="1" style="stop-color:#B8A218"/>
	</linearGradient>
	<path class="st14" d="M301.99,267.36l-3.86-6.31h-4.08v6.31h-3.48v-16.63h8.31c1.98,0,3.51,0.43,4.59,1.28
		c1.08,0.85,1.62,2.08,1.62,3.68c0,1.16-0.33,2.17-0.99,3.02s-1.55,1.4-2.68,1.67l4.5,6.99H301.99z M301.58,255.83
		c0-1.6-1.02-2.4-3.07-2.4h-4.46v4.91h4.56c0.98,0,1.71-0.22,2.22-0.66C301.33,257.24,301.58,256.63,301.58,255.83z"/>
	<linearGradient id="SVGID_16_" gradientUnits="userSpaceOnUse" x1="316.2813" y1="338.3705" x2="314.7161" y2="261.6748">
		<stop  offset="0" style="stop-color:#F7E17B"/>
		<stop  offset="1" style="stop-color:#B8A218"/>
	</linearGradient>
	<path class="st15" d="M308.02,267.36v-16.63h13.08v2.69h-9.59v4.18h8.88v2.69h-8.88v4.38h10.08v2.69H308.02z"/>
	<linearGradient id="SVGID_17_" gradientUnits="userSpaceOnUse" x1="334.2071" y1="338.0046" x2="332.6419" y2="261.309">
		<stop  offset="0" style="stop-color:#F7E17B"/>
		<stop  offset="1" style="stop-color:#B8A218"/>
	</linearGradient>
	<path class="st16" d="M337.95,267.36v-10.08c0-0.23,0-0.46,0.01-0.68c0-0.23,0.04-1.21,0.11-2.94c-0.56,2.12-0.97,3.59-1.24,4.43
		l-3,9.28h-2.48l-3-9.28l-1.26-4.43c0.09,1.83,0.14,3.03,0.14,3.62v10.08h-3.09v-16.63h4.66l2.97,9.3l0.26,0.9l0.57,2.23l0.74-2.67
		l3.06-9.76h4.64v16.63H337.95z"/>
	<linearGradient id="SVGID_18_" gradientUnits="userSpaceOnUse" x1="353.6551" y1="337.6078" x2="352.0899" y2="260.9121">
		<stop  offset="0" style="stop-color:#F7E17B"/>
		<stop  offset="1" style="stop-color:#B8A218"/>
	</linearGradient>
	<path class="st17" d="M360.45,258.97c0,1.73-0.34,3.25-1.03,4.57c-0.68,1.31-1.66,2.32-2.94,3.02s-2.76,1.04-4.46,1.04
		c-2.61,0-4.66-0.77-6.14-2.31s-2.22-3.64-2.22-6.32c0-2.67,0.74-4.75,2.22-6.24c1.48-1.49,3.54-2.24,6.17-2.24s4.7,0.76,6.18,2.27
		C359.71,254.26,360.45,256.33,360.45,258.97z M356.9,258.97c0-1.79-0.42-3.2-1.27-4.22c-0.85-1.02-2.04-1.53-3.58-1.53
		c-1.56,0-2.76,0.51-3.61,1.52s-1.28,2.42-1.28,4.23c0,1.83,0.44,3.26,1.3,4.31c0.87,1.05,2.06,1.58,3.56,1.58
		c1.56,0,2.76-0.51,3.61-1.53C356.47,262.3,356.9,260.85,356.9,258.97z"/>
	<linearGradient id="SVGID_19_" gradientUnits="userSpaceOnUse" x1="371.2891" y1="337.2479" x2="369.7239" y2="260.5522">
		<stop  offset="0" style="stop-color:#F7E17B"/>
		<stop  offset="1" style="stop-color:#B8A218"/>
	</linearGradient>
	<path class="st18" d="M371.31,267.36h-3.53l-6.15-16.63h3.63l3.42,10.68c0.21,0.69,0.5,1.74,0.87,3.14l0.25-1.02l0.6-2.12
		l3.41-10.68h3.6L371.31,267.36z"/>
	<linearGradient id="SVGID_20_" gradientUnits="userSpaceOnUse" x1="387.4285" y1="336.9185" x2="385.8632" y2="260.2228">
		<stop  offset="0" style="stop-color:#F7E17B"/>
		<stop  offset="1" style="stop-color:#B8A218"/>
	</linearGradient>
	<path class="st19" d="M379.2,267.36v-16.63h13.08v2.69h-9.59v4.18h8.88v2.69h-8.88v4.38h10.08v2.69H379.2z"/>
	<linearGradient id="SVGID_21_" gradientUnits="userSpaceOnUse" x1="129.7238" y1="342.1778" x2="128.1586" y2="265.4821">
		<stop  offset="0" style="stop-color:#F7E17B"/>
		<stop  offset="1" style="stop-color:#B8A218"/>
	</linearGradient>
	<path class="st20" d="M128.27,291.77c-2.29,0-4.04-0.56-5.26-1.68c-1.22-1.12-1.82-2.71-1.82-4.79v-10.4h3.48v10.13
		c0,1.31,0.31,2.31,0.94,2.99s1.54,1.02,2.76,1.02c1.24,0,2.2-0.36,2.87-1.07c0.67-0.71,1-1.73,1-3.06V274.9h3.48v10.22
		c0,2.11-0.65,3.74-1.95,4.9C132.47,291.19,130.64,291.77,128.27,291.77z"/>
	<linearGradient id="SVGID_22_" gradientUnits="userSpaceOnUse" x1="147.1148" y1="341.8228" x2="145.5495" y2="265.1272">
		<stop  offset="0" style="stop-color:#F7E17B"/>
		<stop  offset="1" style="stop-color:#B8A218"/>
	</linearGradient>
	<path class="st21" d="M148.94,291.53l-7.25-12.8c0.14,1.24,0.21,2.24,0.21,3v9.81h-3.09V274.9h3.98l7.35,12.91
		c-0.14-1.19-0.21-2.27-0.21-3.25v-9.67h3.09v16.63H148.94z"/>
	<linearGradient id="SVGID_23_" gradientUnits="userSpaceOnUse" x1="167.4161" y1="341.4085" x2="165.8509" y2="264.7129">
		<stop  offset="0" style="stop-color:#F7E17B"/>
		<stop  offset="1" style="stop-color:#B8A218"/>
	</linearGradient>
	<path class="st22" d="M173.15,291.53h-4.13l-2.25-9.62c-0.28-1.13-0.51-2.32-0.7-3.55c-0.19,1.03-0.34,1.82-0.46,2.35
		s-0.96,4.14-2.51,10.82h-4.13l-4.28-16.63h3.53l2.41,10.74l0.54,2.6c0.22-1.09,0.43-2.14,0.64-3.13s0.99-4.4,2.35-10.2h3.89
		l2.1,8.85c0.17,0.66,0.44,2.16,0.84,4.48l0.29-1.37l0.63-2.71l2.01-9.25h3.53L173.15,291.53z"/>
	<linearGradient id="SVGID_24_" gradientUnits="userSpaceOnUse" x1="185.852" y1="341.0323" x2="184.2868" y2="264.3366">
		<stop  offset="0" style="stop-color:#F7E17B"/>
		<stop  offset="1" style="stop-color:#B8A218"/>
	</linearGradient>
	<path class="st23" d="M189.5,291.53l-1.48-4.25h-6.34l-1.48,4.25h-3.48l6.07-16.63h4.11l6.04,16.63H189.5z M184.85,277.46
		l-0.07,0.26c-0.08,0.28-0.17,0.61-0.28,0.97c-0.11,0.36-0.79,2.35-2.03,5.97h4.78l-1.64-4.78l-0.51-1.61L184.85,277.46z"/>
	<linearGradient id="SVGID_25_" gradientUnits="userSpaceOnUse" x1="203.4809" y1="340.6725" x2="201.9157" y2="263.9769">
		<stop  offset="0" style="stop-color:#F7E17B"/>
		<stop  offset="1" style="stop-color:#B8A218"/>
	</linearGradient>
	<path class="st24" d="M205.33,291.53l-7.25-12.8c0.14,1.24,0.21,2.24,0.21,3v9.81h-3.09V274.9h3.98l7.35,12.91
		c-0.14-1.19-0.21-2.27-0.21-3.25v-9.67h3.09v16.63H205.33z"/>
	<linearGradient id="SVGID_26_" gradientUnits="userSpaceOnUse" x1="219.7375" y1="340.3408" x2="218.1723" y2="263.6451">
		<stop  offset="0" style="stop-color:#F7E17B"/>
		<stop  offset="1" style="stop-color:#B8A218"/>
	</linearGradient>
	<path class="st25" d="M220.16,277.59v13.94h-3.48v-13.94h-5.37v-2.69h14.23v2.69H220.16z"/>
	<linearGradient id="SVGID_27_" gradientUnits="userSpaceOnUse" x1="235.22" y1="340.0248" x2="233.6548" y2="263.3291">
		<stop  offset="0" style="stop-color:#F7E17B"/>
		<stop  offset="1" style="stop-color:#B8A218"/>
	</linearGradient>
	<path class="st26" d="M227.42,291.53V274.9h13.08v2.69h-9.59v4.18h8.88v2.69h-8.88v4.38h10.08v2.69H227.42z"/>
	<linearGradient id="SVGID_28_" gradientUnits="userSpaceOnUse" x1="252.0267" y1="339.6818" x2="250.4615" y2="262.9861">
		<stop  offset="0" style="stop-color:#F7E17B"/>
		<stop  offset="1" style="stop-color:#B8A218"/>
	</linearGradient>
	<path class="st27" d="M258.37,283.09c0,1.72-0.34,3.21-1.01,4.49c-0.67,1.28-1.62,2.26-2.86,2.93s-2.64,1.01-4.23,1.01h-6.73V274.9
		h6.02c2.8,0,4.97,0.71,6.5,2.12C257.6,278.43,258.37,280.46,258.37,283.09z M254.86,283.09c0-1.79-0.46-3.15-1.39-4.09
		c-0.93-0.94-2.25-1.41-3.98-1.41h-2.47v11.25h2.95c1.5,0,2.68-0.52,3.56-1.55C254.42,286.26,254.86,284.86,254.86,283.09z"/>
	<linearGradient id="SVGID_29_" gradientUnits="userSpaceOnUse" x1="276.6295" y1="339.1797" x2="275.0643" y2="262.484">
		<stop  offset="0" style="stop-color:#F7E17B"/>
		<stop  offset="1" style="stop-color:#B8A218"/>
	</linearGradient>
	<path class="st28" d="M283.88,283.14c0,1.73-0.34,3.25-1.03,4.57c-0.68,1.31-1.66,2.32-2.94,3.02s-2.76,1.04-4.46,1.04
		c-2.61,0-4.66-0.77-6.14-2.31s-2.22-3.64-2.22-6.32c0-2.67,0.74-4.75,2.22-6.24c1.48-1.49,3.54-2.24,6.17-2.24s4.7,0.76,6.18,2.27
		C283.14,278.43,283.88,280.5,283.88,283.14z M280.33,283.14c0-1.79-0.42-3.2-1.27-4.22c-0.85-1.02-2.04-1.53-3.58-1.53
		c-1.56,0-2.76,0.51-3.61,1.52s-1.28,2.42-1.28,4.23c0,1.83,0.44,3.26,1.3,4.31c0.87,1.05,2.06,1.58,3.56,1.58
		c1.56,0,2.76-0.51,3.61-1.53C279.91,286.47,280.33,285.02,280.33,283.14z"/>
	<linearGradient id="SVGID_30_" gradientUnits="userSpaceOnUse" x1="294.8995" y1="338.8069" x2="293.3343" y2="262.1112">
		<stop  offset="0" style="stop-color:#F7E17B"/>
		<stop  offset="1" style="stop-color:#B8A218"/>
	</linearGradient>
	<path class="st29" d="M301.26,286.79c0,1.51-0.57,2.68-1.7,3.5s-2.71,1.24-4.72,1.24h-8.32V274.9h7.61c2.03,0,3.57,0.35,4.61,1.06
		c1.04,0.7,1.56,1.74,1.56,3.12c0,0.94-0.26,1.74-0.79,2.39c-0.52,0.65-1.32,1.09-2.39,1.32c1.35,0.16,2.37,0.58,3.07,1.27
		S301.26,285.65,301.26,286.79z M296.79,279.55c0-0.75-0.24-1.28-0.71-1.59c-0.48-0.31-1.18-0.47-2.12-0.47H290v4.12h3.99
		c0.98,0,1.7-0.17,2.14-0.51C296.57,280.75,296.79,280.24,296.79,279.55z M297.76,286.51c0-1.56-1.12-2.34-3.35-2.34H290v4.77h4.54
		c1.12,0,1.93-0.2,2.45-0.61S297.76,287.33,297.76,286.51z"/>
	<linearGradient id="SVGID_31_" gradientUnits="userSpaceOnUse" x1="309.606" y1="338.5067" x2="308.0408" y2="261.8111">
		<stop  offset="0" style="stop-color:#F7E17B"/>
		<stop  offset="1" style="stop-color:#B8A218"/>
	</linearGradient>
	<path class="st30" d="M308.54,291.77c-1.72,0-3.05-0.37-3.97-1.12c-0.92-0.75-1.54-1.96-1.85-3.62l3.46-0.51
		c0.14,0.86,0.4,1.49,0.79,1.91s0.92,0.62,1.59,0.62c0.69,0,1.22-0.23,1.58-0.7s0.54-1.13,0.54-1.99v-8.72h-3.32v-2.73h6.79v11.37
		c0,1.73-0.49,3.08-1.48,4.05S310.31,291.77,308.54,291.77z"/>
	<linearGradient id="SVGID_32_" gradientUnits="userSpaceOnUse" x1="325.173" y1="338.189" x2="323.6078" y2="261.4934">
		<stop  offset="0" style="stop-color:#F7E17B"/>
		<stop  offset="1" style="stop-color:#B8A218"/>
	</linearGradient>
	<path class="st31" d="M317.41,291.53V274.9h13.08v2.69h-9.59v4.18h8.88v2.69h-8.88v4.38h10.08v2.69H317.41z"/>
	<linearGradient id="SVGID_33_" gradientUnits="userSpaceOnUse" x1="341.885" y1="337.848" x2="340.3198" y2="261.1523">
		<stop  offset="0" style="stop-color:#F7E17B"/>
		<stop  offset="1" style="stop-color:#B8A218"/>
	</linearGradient>
	<path class="st32" d="M341.3,289.03c2.1,0,3.56-1.05,4.38-3.16l3.03,1.14c-0.65,1.61-1.61,2.8-2.87,3.58
		c-1.26,0.78-2.78,1.17-4.54,1.17c-2.68,0-4.74-0.76-6.2-2.27c-1.46-1.51-2.19-3.63-2.19-6.36c0-2.73,0.7-4.83,2.11-6.29
		c1.41-1.46,3.45-2.2,6.13-2.2c1.95,0,3.54,0.39,4.77,1.17c1.23,0.78,2.09,1.93,2.58,3.45l-3.07,0.84c-0.26-0.83-0.77-1.5-1.53-1.99
		c-0.76-0.49-1.65-0.74-2.68-0.74c-1.57,0-2.77,0.49-3.58,1.46s-1.22,2.4-1.22,4.28c0,1.91,0.42,3.37,1.26,4.38
		C338.51,288.52,339.72,289.03,341.3,289.03z"/>
	<linearGradient id="SVGID_34_" gradientUnits="userSpaceOnUse" x1="358.0107" y1="337.5189" x2="356.4455" y2="260.8232">
		<stop  offset="0" style="stop-color:#F7E17B"/>
		<stop  offset="1" style="stop-color:#B8A218"/>
	</linearGradient>
	<path class="st33" d="M358.5,277.59v13.94h-3.48v-13.94h-5.37v-2.69h14.23v2.69H358.5z"/>
	<linearGradient id="SVGID_35_" gradientUnits="userSpaceOnUse" x1="373.0988" y1="337.2109" x2="371.5336" y2="260.5153">
		<stop  offset="0" style="stop-color:#F7E17B"/>
		<stop  offset="1" style="stop-color:#B8A218"/>
	</linearGradient>
	<path class="st34" d="M379.31,286.74c0,1.63-0.6,2.87-1.81,3.74c-1.21,0.86-2.98,1.29-5.32,1.29c-2.13,0-3.8-0.38-5.02-1.13
		c-1.21-0.76-1.99-1.9-2.34-3.43l3.36-0.55c0.23,0.88,0.67,1.52,1.33,1.92s1.58,0.6,2.75,0.6c2.43,0,3.65-0.74,3.65-2.22
		c0-0.47-0.14-0.86-0.42-1.17c-0.28-0.31-0.67-0.56-1.18-0.77c-0.51-0.21-1.48-0.45-2.92-0.74c-1.24-0.29-2.11-0.53-2.6-0.7
		c-0.49-0.18-0.93-0.38-1.32-0.63s-0.73-0.53-1-0.87c-0.28-0.34-0.49-0.74-0.64-1.19s-0.23-0.98-0.23-1.57
		c0-1.5,0.56-2.65,1.69-3.45s2.77-1.2,4.93-1.2c2.06,0,3.61,0.32,4.64,0.97c1.03,0.65,1.7,1.71,2,3.2l-3.38,0.46
		c-0.17-0.72-0.53-1.25-1.06-1.62c-0.53-0.36-1.29-0.54-2.28-0.54c-2.11,0-3.16,0.66-3.16,1.98c0,0.43,0.11,0.79,0.34,1.06
		c0.22,0.28,0.56,0.51,1,0.7c0.44,0.19,1.33,0.43,2.68,0.73c1.6,0.34,2.74,0.65,3.43,0.94s1.23,0.62,1.63,1
		c0.4,0.38,0.71,0.84,0.92,1.37C379.21,285.43,379.31,286.05,379.31,286.74z"/>
	<linearGradient id="SVGID_36_" gradientUnits="userSpaceOnUse" x1="176.7512" y1="341.218" x2="175.186" y2="264.5224">
		<stop  offset="0" style="stop-color:#F7E17B"/>
		<stop  offset="1" style="stop-color:#B8A218"/>
	</linearGradient>
	<path class="st35" d="M173.41,301.76v5.15h8.51v2.69h-8.51v6.1h-3.48v-16.63h12.26v2.69H173.41z"/>
	<linearGradient id="SVGID_37_" gradientUnits="userSpaceOnUse" x1="192.8793" y1="340.8889" x2="191.3141" y2="264.1932">
		<stop  offset="0" style="stop-color:#F7E17B"/>
		<stop  offset="1" style="stop-color:#B8A218"/>
	</linearGradient>
	<path class="st36" d="M196.12,315.7l-3.86-6.31h-4.08v6.31h-3.48v-16.63H193c1.98,0,3.51,0.43,4.59,1.28
		c1.08,0.85,1.62,2.08,1.62,3.68c0,1.16-0.33,2.17-0.99,3.02c-0.66,0.85-1.55,1.4-2.68,1.67l4.5,6.99H196.12z M195.71,304.17
		c0-1.6-1.02-2.4-3.07-2.4h-4.46v4.91h4.56c0.98,0,1.72-0.22,2.22-0.66S195.71,304.97,195.71,304.17z"/>
	<linearGradient id="SVGID_38_" gradientUnits="userSpaceOnUse" x1="210.5985" y1="340.5273" x2="209.0333" y2="263.8316">
		<stop  offset="0" style="stop-color:#F7E17B"/>
		<stop  offset="1" style="stop-color:#B8A218"/>
	</linearGradient>
	<path class="st37" d="M218.32,307.31c0,1.73-0.34,3.25-1.03,4.57c-0.68,1.31-1.66,2.32-2.94,3.02c-1.27,0.7-2.76,1.04-4.46,1.04
		c-2.61,0-4.66-0.77-6.14-2.31c-1.48-1.54-2.22-3.64-2.22-6.32c0-2.67,0.74-4.75,2.22-6.24c1.48-1.49,3.54-2.24,6.17-2.24
		s4.7,0.76,6.18,2.27C217.58,302.6,218.32,304.67,218.32,307.31z M214.77,307.31c0-1.79-0.42-3.2-1.27-4.22s-2.04-1.53-3.58-1.53
		c-1.56,0-2.76,0.51-3.61,1.52c-0.85,1.01-1.27,2.42-1.27,4.23c0,1.83,0.43,3.26,1.3,4.31c0.87,1.05,2.06,1.58,3.56,1.58
		c1.56,0,2.76-0.51,3.61-1.53S214.77,309.19,214.77,307.31z"/>
	<linearGradient id="SVGID_39_" gradientUnits="userSpaceOnUse" x1="230.0676" y1="340.1299" x2="228.5024" y2="263.4343">
		<stop  offset="0" style="stop-color:#F7E17B"/>
		<stop  offset="1" style="stop-color:#B8A218"/>
	</linearGradient>
	<path class="st38" d="M234.76,315.7v-10.08c0-0.23,0-0.46,0.01-0.68c0-0.23,0.04-1.21,0.11-2.94c-0.56,2.12-0.97,3.59-1.24,4.43
		l-3,9.28h-2.48l-3-9.28L223.9,302c0.09,1.83,0.14,3.03,0.14,3.62v10.08h-3.09v-16.63h4.66l2.97,9.3l0.26,0.9l0.57,2.23l0.74-2.67
		l3.06-9.76h4.64v16.63H234.76z"/>
	<linearGradient id="SVGID_40_" gradientUnits="userSpaceOnUse" x1="255.2425" y1="339.6162" x2="253.6773" y2="262.9205">
		<stop  offset="0" style="stop-color:#F7E17B"/>
		<stop  offset="1" style="stop-color:#B8A218"/>
	</linearGradient>
	<path class="st39" d="M261.48,304.34c0,1.07-0.24,2.03-0.73,2.87s-1.19,1.49-2.09,1.95c-0.91,0.46-1.99,0.69-3.24,0.69h-4.13v5.85
		h-3.48v-16.63h7.47c1.99,0,3.52,0.46,4.6,1.38C260.94,301.36,261.48,302.66,261.48,304.34z M257.97,304.39
		c0-1.75-1.03-2.62-3.09-2.62h-3.6v5.39h3.69c0.96,0,1.7-0.24,2.22-0.71C257.71,305.98,257.97,305.29,257.97,304.39z"/>
	<linearGradient id="SVGID_41_" gradientUnits="userSpaceOnUse" x1="271.6763" y1="339.2808" x2="270.1111" y2="262.5851">
		<stop  offset="0" style="stop-color:#F7E17B"/>
		<stop  offset="1" style="stop-color:#B8A218"/>
	</linearGradient>
	<path class="st40" d="M274.65,315.7v-7.13h-7.25v7.13h-3.48v-16.63h3.48v6.62h7.25v-6.62h3.48v16.63H274.65z"/>
	<linearGradient id="SVGID_42_" gradientUnits="userSpaceOnUse" x1="289.7919" y1="338.9111" x2="288.2267" y2="262.2154">
		<stop  offset="0" style="stop-color:#F7E17B"/>
		<stop  offset="1" style="stop-color:#B8A218"/>
	</linearGradient>
	<path class="st41" d="M297.54,307.31c0,1.73-0.34,3.25-1.03,4.57c-0.68,1.31-1.66,2.32-2.94,3.02s-2.76,1.04-4.46,1.04
		c-2.61,0-4.66-0.77-6.14-2.31s-2.22-3.64-2.22-6.32c0-2.67,0.74-4.75,2.22-6.24c1.48-1.49,3.54-2.24,6.17-2.24s4.7,0.76,6.18,2.27
		C296.8,302.6,297.54,304.67,297.54,307.31z M293.99,307.31c0-1.79-0.42-3.2-1.27-4.22c-0.85-1.02-2.04-1.53-3.58-1.53
		c-1.56,0-2.76,0.51-3.61,1.52s-1.28,2.42-1.28,4.23c0,1.83,0.44,3.26,1.3,4.31c0.87,1.05,2.06,1.58,3.56,1.58
		c1.56,0,2.76-0.51,3.61-1.53C293.57,310.64,293.99,309.19,293.99,307.31z"/>
	<linearGradient id="SVGID_43_" gradientUnits="userSpaceOnUse" x1="306.7253" y1="338.5655" x2="305.1601" y2="261.8698">
		<stop  offset="0" style="stop-color:#F7E17B"/>
		<stop  offset="1" style="stop-color:#B8A218"/>
	</linearGradient>
	<path class="st42" d="M307.68,301.76v13.94h-3.48v-13.94h-5.37v-2.69h14.23v2.69H307.68z"/>
	<linearGradient id="SVGID_44_" gradientUnits="userSpaceOnUse" x1="322.906" y1="338.2353" x2="321.3408" y2="261.5396">
		<stop  offset="0" style="stop-color:#F7E17B"/>
		<stop  offset="1" style="stop-color:#B8A218"/>
	</linearGradient>
	<path class="st43" d="M330.67,307.31c0,1.73-0.34,3.25-1.03,4.57c-0.68,1.31-1.66,2.32-2.94,3.02s-2.76,1.04-4.46,1.04
		c-2.61,0-4.66-0.77-6.14-2.31s-2.22-3.64-2.22-6.32c0-2.67,0.74-4.75,2.22-6.24c1.48-1.49,3.54-2.24,6.17-2.24s4.7,0.76,6.18,2.27
		C329.93,302.6,330.67,304.67,330.67,307.31z M327.12,307.31c0-1.79-0.42-3.2-1.27-4.22c-0.85-1.02-2.04-1.53-3.58-1.53
		c-1.56,0-2.76,0.51-3.61,1.52s-1.28,2.42-1.28,4.23c0,1.83,0.44,3.26,1.3,4.31c0.87,1.05,2.06,1.58,3.56,1.58
		c1.56,0,2.76-0.51,3.61-1.53C326.7,310.64,327.12,309.19,327.12,307.31z"/>
</g>
<g>
	<linearGradient id="SVGID_45_" gradientUnits="userSpaceOnUse" x1="143.3503" y1="387.1304" x2="143.3503" y2="401.4184">
		<stop  offset="0" style="stop-color:#F7E17B"/>
		<stop  offset="1" style="stop-color:#B8A218"/>
	</linearGradient>
	<path class="st44" d="M139.79,392.27v6.03h9.04v1.82h-9.04v6.57h-2.2v-16.21h11.52v1.79H139.79z"/>
	<linearGradient id="SVGID_46_" gradientUnits="userSpaceOnUse" x1="153.3269" y1="387.1304" x2="153.3269" y2="401.4184">
		<stop  offset="0" style="stop-color:#F7E17B"/>
		<stop  offset="1" style="stop-color:#B8A218"/>
	</linearGradient>
	<path class="st45" d="M152.23,406.68v-16.21h2.2v16.21H152.23z"/>
	<linearGradient id="SVGID_47_" gradientUnits="userSpaceOnUse" x1="164.4771" y1="387.1304" x2="164.4771" y2="401.4184">
		<stop  offset="0" style="stop-color:#F7E17B"/>
		<stop  offset="1" style="stop-color:#B8A218"/>
	</linearGradient>
	<path class="st46" d="M169.4,406.68l-4.87-7.09l-4.97,7.09h-2.43l6.17-8.42l-5.7-7.79h2.43l4.51,6.36l4.38-6.36h2.43l-5.55,7.71
		l6.02,8.5H169.4z"/>
	<linearGradient id="SVGID_48_" gradientUnits="userSpaceOnUse" x1="179.5105" y1="387.1304" x2="179.5105" y2="401.4184">
		<stop  offset="0" style="stop-color:#F7E17B"/>
		<stop  offset="1" style="stop-color:#B8A218"/>
	</linearGradient>
	<path class="st47" d="M180.6,392.27v14.42h-2.19v-14.42h-5.57v-1.79h13.32v1.79H180.6z"/>
	<linearGradient id="SVGID_49_" gradientUnits="userSpaceOnUse" x1="195.2288" y1="387.1304" x2="195.2288" y2="401.4184">
		<stop  offset="0" style="stop-color:#F7E17B"/>
		<stop  offset="1" style="stop-color:#B8A218"/>
	</linearGradient>
	<path class="st48" d="M199.61,406.68v-7.51h-8.77v7.51h-2.2v-16.21h2.2v6.86h8.77v-6.86h2.2v16.21H199.61z"/>
	<linearGradient id="SVGID_50_" gradientUnits="userSpaceOnUse" x1="212.0518" y1="387.1304" x2="212.0518" y2="401.4184">
		<stop  offset="0" style="stop-color:#F7E17B"/>
		<stop  offset="1" style="stop-color:#B8A218"/>
	</linearGradient>
	<path class="st49" d="M205.67,406.68v-16.21h12.3v1.79h-10.1v5.2h9.41v1.77h-9.41v5.65h10.57v1.79H205.67z"/>
	<linearGradient id="SVGID_51_" gradientUnits="userSpaceOnUse" x1="227.655" y1="387.1304" x2="227.655" y2="401.4184">
		<stop  offset="0" style="stop-color:#F7E17B"/>
		<stop  offset="1" style="stop-color:#B8A218"/>
	</linearGradient>
	<path class="st50" d="M233.93,395.35c0,1.53-0.5,2.75-1.5,3.66c-1,0.91-2.36,1.36-4.08,1.36h-4.76v6.32h-2.2v-16.21h6.82
		c1.82,0,3.23,0.43,4.22,1.28S233.93,393.8,233.93,395.35z M231.72,395.37c0-2.09-1.26-3.14-3.77-3.14h-4.36v6.4h4.45
		C230.49,398.63,231.72,397.54,231.72,395.37z"/>
	<linearGradient id="SVGID_52_" gradientUnits="userSpaceOnUse" x1="243.6841" y1="387.1304" x2="243.6841" y2="401.4184">
		<stop  offset="0" style="stop-color:#F7E17B"/>
		<stop  offset="1" style="stop-color:#B8A218"/>
	</linearGradient>
	<path class="st51" d="M248.07,406.68v-7.51h-8.77v7.51h-2.2v-16.21h2.2v6.86h8.77v-6.86h2.2v16.21H248.07z"/>
	<linearGradient id="SVGID_53_" gradientUnits="userSpaceOnUse" x1="261.3457" y1="387.1304" x2="261.3457" y2="401.4184">
		<stop  offset="0" style="stop-color:#F7E17B"/>
		<stop  offset="1" style="stop-color:#B8A218"/>
	</linearGradient>
	<path class="st52" d="M269.39,398.5c0,1.7-0.32,3.18-0.97,4.45c-0.65,1.27-1.58,2.25-2.79,2.93s-2.64,1.02-4.29,1.02
		c-1.66,0-3.1-0.34-4.31-1.01c-1.21-0.67-2.13-1.65-2.77-2.93s-0.96-2.77-0.96-4.47c0-2.59,0.71-4.62,2.13-6.08
		c1.42-1.46,3.39-2.19,5.93-2.19c1.65,0,3.08,0.33,4.29,0.98s2.14,1.61,2.78,2.86C269.07,395.32,269.39,396.8,269.39,398.5z
		 M267.15,398.5c0-2.02-0.5-3.6-1.51-4.75s-2.43-1.73-4.27-1.73c-1.86,0-3.29,0.57-4.3,1.7c-1.01,1.14-1.52,2.73-1.52,4.78
		c0,2.03,0.51,3.65,1.54,4.84c1.02,1.19,2.45,1.79,4.26,1.79c1.87,0,3.31-0.58,4.31-1.73S267.15,400.61,267.15,398.5z"/>
	<linearGradient id="SVGID_54_" gradientUnits="userSpaceOnUse" x1="277.7085" y1="387.1304" x2="277.7085" y2="401.4184">
		<stop  offset="0" style="stop-color:#F7E17B"/>
		<stop  offset="1" style="stop-color:#B8A218"/>
	</linearGradient>
	<path class="st53" d="M278.8,392.27v14.42h-2.19v-14.42h-5.57v-1.79h13.33v1.79H278.8z"/>
	<linearGradient id="SVGID_55_" gradientUnits="userSpaceOnUse" x1="293.6445" y1="387.1304" x2="293.6445" y2="401.4184">
		<stop  offset="0" style="stop-color:#F7E17B"/>
		<stop  offset="1" style="stop-color:#B8A218"/>
	</linearGradient>
	<path class="st54" d="M301.69,398.5c0,1.7-0.32,3.18-0.97,4.45c-0.65,1.27-1.58,2.25-2.79,2.93s-2.64,1.02-4.29,1.02
		c-1.66,0-3.1-0.34-4.31-1.01c-1.21-0.67-2.13-1.65-2.77-2.93s-0.96-2.77-0.96-4.47c0-2.59,0.71-4.62,2.13-6.08
		c1.42-1.46,3.39-2.19,5.93-2.19c1.65,0,3.08,0.33,4.29,0.98s2.14,1.61,2.78,2.86C301.37,395.32,301.69,396.8,301.69,398.5z
		 M299.44,398.5c0-2.02-0.5-3.6-1.51-4.75s-2.43-1.73-4.27-1.73c-1.86,0-3.29,0.57-4.3,1.7c-1.01,1.14-1.52,2.73-1.52,4.78
		c0,2.03,0.51,3.65,1.54,4.84c1.02,1.19,2.45,1.79,4.26,1.79c1.87,0,3.31-0.58,4.31-1.73S299.44,400.61,299.44,398.5z"/>
	<linearGradient id="SVGID_56_" gradientUnits="userSpaceOnUse" x1="306.0889" y1="387.1304" x2="306.0889" y2="401.4184">
		<stop  offset="0" style="stop-color:#F7E17B"/>
		<stop  offset="1" style="stop-color:#B8A218"/>
	</linearGradient>
	<path class="st55" d="M304.97,406.68v-2.52h2.24v2.52H304.97z"/>
	<linearGradient id="SVGID_57_" gradientUnits="userSpaceOnUse" x1="318.021" y1="387.1304" x2="318.021" y2="401.4184">
		<stop  offset="0" style="stop-color:#F7E17B"/>
		<stop  offset="1" style="stop-color:#B8A218"/>
	</linearGradient>
	<path class="st56" d="M318.48,392.03c-1.79,0-3.19,0.58-4.19,1.73s-1.5,2.74-1.5,4.75c0,1.99,0.52,3.58,1.56,4.79
		c1.04,1.21,2.45,1.81,4.22,1.81c2.27,0,3.98-1.12,5.12-3.37l1.79,0.9c-0.67,1.4-1.61,2.46-2.81,3.19
		c-1.21,0.73-2.61,1.09-4.21,1.09c-1.63,0-3.05-0.34-4.24-1.02c-1.19-0.68-2.1-1.65-2.73-2.91c-0.63-1.26-0.94-2.76-0.94-4.48
		c0-2.58,0.7-4.61,2.09-6.08c1.4-1.46,3.33-2.2,5.8-2.2c1.73,0,3.17,0.34,4.33,1.01c1.16,0.68,2.01,1.68,2.55,3l-2.08,0.69
		c-0.38-0.94-0.98-1.67-1.81-2.16C320.61,392.27,319.62,392.03,318.48,392.03z"/>
	<linearGradient id="SVGID_58_" gradientUnits="userSpaceOnUse" x1="335.54" y1="387.1304" x2="335.54" y2="401.4184">
		<stop  offset="0" style="stop-color:#F7E17B"/>
		<stop  offset="1" style="stop-color:#B8A218"/>
	</linearGradient>
	<path class="st57" d="M343.58,398.5c0,1.7-0.32,3.18-0.97,4.45c-0.65,1.27-1.58,2.25-2.79,2.93s-2.64,1.02-4.29,1.02
		c-1.66,0-3.1-0.34-4.31-1.01c-1.21-0.67-2.13-1.65-2.77-2.93s-0.96-2.77-0.96-4.47c0-2.59,0.71-4.62,2.13-6.08
		c1.42-1.46,3.39-2.19,5.93-2.19c1.65,0,3.08,0.33,4.29,0.98s2.14,1.61,2.78,2.86C343.26,395.32,343.58,396.8,343.58,398.5z
		 M341.34,398.5c0-2.02-0.5-3.6-1.51-4.75s-2.43-1.73-4.27-1.73c-1.86,0-3.29,0.57-4.3,1.7c-1.01,1.14-1.52,2.73-1.52,4.78
		c0,2.03,0.51,3.65,1.54,4.84c1.02,1.19,2.45,1.79,4.26,1.79c1.87,0,3.31-0.58,4.31-1.73S341.34,400.61,341.34,398.5z"/>
	<linearGradient id="SVGID_59_" gradientUnits="userSpaceOnUse" x1="354.5264" y1="387.1304" x2="354.5264" y2="401.4184">
		<stop  offset="0" style="stop-color:#F7E17B"/>
		<stop  offset="1" style="stop-color:#B8A218"/>
	</linearGradient>
	<path class="st58" d="M360.43,406.68v-10.82c0-1.2,0.04-2.35,0.1-3.45c-0.38,1.37-0.71,2.45-1.01,3.22l-4.19,11.05h-1.54
		l-4.25-11.05l-0.64-1.96l-0.38-1.27l0.03,1.28l0.05,2.17v10.82h-1.96v-16.21h2.89l4.32,11.24c0.15,0.45,0.3,0.94,0.44,1.46
		c0.14,0.52,0.24,0.89,0.28,1.12c0.06-0.31,0.19-0.77,0.39-1.4c0.2-0.63,0.33-1.02,0.4-1.18l4.23-11.24h2.82v16.21H360.43z"/>
</g>
<g>
	<g>
		<radialGradient id="SVGID_60_" cx="-30.9565" cy="117.4783" r="318.1177" gradientUnits="userSpaceOnUse">
			<stop  offset="0" style="stop-color:#F7E17B"/>
			<stop  offset="1" style="stop-color:#B8A218"/>
		</radialGradient>
		<path class="st59" d="M131.12,378.99c0,0,18.06,5.81,25.01-13.79C157.06,362.58,137.97,359.71,131.12,378.99z"/>
		<radialGradient id="SVGID_61_" cx="-30.9565" cy="117.4783" r="318.1177" gradientUnits="userSpaceOnUse">
			<stop  offset="0" style="stop-color:#F7E17B"/>
			<stop  offset="1" style="stop-color:#B8A218"/>
		</radialGradient>
		<path class="st60" d="M141.11,339.29c0,0,18.71,3.15,15.85,23.75C156.58,365.8,138.31,359.55,141.11,339.29z"/>
	</g>
	<radialGradient id="SVGID_62_" cx="-30.9565" cy="117.4783" r="318.1177" gradientUnits="userSpaceOnUse">
		<stop  offset="0" style="stop-color:#F7E17B"/>
		<stop  offset="1" style="stop-color:#B8A218"/>
	</radialGradient>
	<path class="st61" d="M228.01,377.03c-11.49-4.22-28.57-9.08-49.65-10.75c-5.28-0.43-10.72-0.63-16.5-0.65
		c-5.83-0.03-11.98-0.54-18.11-1.61c-12.32-2.11-24.9-6.46-36.84-12.9c-23.91-12.83-45.2-33.95-58.84-59.34
		c-6.82-12.67-11.73-26.42-13.99-40.42c-2.19-13.92-3.24-27.82-2.79-41.25c0.42-13.42,2.4-26.36,5.82-38.18
		c3.35-11.85,8.15-22.54,13.53-31.81c5.38-9.28,11.39-17.11,17.11-23.66c5.74-6.54,11.26-11.75,15.92-15.9
		c2.36-2.04,4.46-3.88,6.37-5.37c1.89-1.52,3.48-2.82,4.83-3.81c2.67-2.01,4.09-3.08,4.09-3.08s-1.41,1.09-4.05,3.13
		c-1.34,1-2.92,2.32-4.78,3.86c-1.89,1.51-3.96,3.37-6.29,5.44c-4.6,4.2-10.05,9.47-15.68,16.06c-5.62,6.59-11.5,14.47-16.73,23.76
		c-5.23,9.28-9.85,19.94-13.02,31.72c-3.24,11.75-5.04,24.58-5.28,37.87c-0.28,13.3,0.94,27.04,3.28,40.8
		c2.39,13.69,7.37,27.1,14.21,39.43c13.66,24.71,34.79,45.09,58.14,57.24c11.66,6.1,23.87,10.13,35.72,12.01
		c5.95,0.96,11.72,1.37,17.41,1.33c5.75-0.06,11.44,0.08,16.83,0.45c21.63,1.44,39.25,6.2,51.17,10.41L228.01,377.03z"/>
	<g>
		<radialGradient id="SVGID_63_" cx="-30.9565" cy="117.4783" r="318.1177" gradientUnits="userSpaceOnUse">
			<stop  offset="0" style="stop-color:#F7E17B"/>
			<stop  offset="1" style="stop-color:#B8A218"/>
		</radialGradient>
		<path class="st62" d="M108.81,373.22c0,0,17.73,6.75,25.7-12.46C135.57,358.18,116.66,354.32,108.81,373.22z"/>
		<radialGradient id="SVGID_64_" cx="-30.9565" cy="117.4783" r="318.1177" gradientUnits="userSpaceOnUse">
			<stop  offset="0" style="stop-color:#F7E17B"/>
			<stop  offset="1" style="stop-color:#B8A218"/>
		</radialGradient>
		<path class="st63" d="M120.87,334.09c0,0,18.52,4.13,14.59,24.55C134.93,361.38,117.01,354.18,120.87,334.09z"/>
	</g>
	<g>
		<radialGradient id="SVGID_65_" cx="-30.9565" cy="117.4783" r="318.1177" gradientUnits="userSpaceOnUse">
			<stop  offset="0" style="stop-color:#F7E17B"/>
			<stop  offset="1" style="stop-color:#B8A218"/>
		</radialGradient>
		<path class="st64" d="M85.3,361.82c0,0,16.64,9.1,27.15-8.84C113.87,350.57,95.65,344.17,85.3,361.82z"/>
		<radialGradient id="SVGID_66_" cx="-30.9565" cy="117.4783" r="318.1177" gradientUnits="userSpaceOnUse">
			<stop  offset="0" style="stop-color:#F7E17B"/>
			<stop  offset="1" style="stop-color:#B8A218"/>
		</radialGradient>
		<path class="st65" d="M102.57,324.7c0,0,17.78,6.61,11.11,26.31C112.79,353.65,96.02,344.08,102.57,324.7z"/>
	</g>
	<g>
		<radialGradient id="SVGID_67_" cx="-30.9565" cy="117.4783" r="318.1177" gradientUnits="userSpaceOnUse">
			<stop  offset="0" style="stop-color:#F7E17B"/>
			<stop  offset="1" style="stop-color:#B8A218"/>
		</radialGradient>
		<path class="st66" d="M63.58,344.35c0,0,14.39,12.37,28.4-3C93.86,339.29,77.38,329.23,63.58,344.35z"/>
		<radialGradient id="SVGID_68_" cx="-30.9565" cy="117.4783" r="318.1177" gradientUnits="userSpaceOnUse">
			<stop  offset="0" style="stop-color:#F7E17B"/>
			<stop  offset="1" style="stop-color:#B8A218"/>
		</radialGradient>
		<path class="st67" d="M88.2,311.63c0,0,16.02,10.17,5.39,28.04C92.17,342.07,77.76,329.22,88.2,311.63z"/>
	</g>
	<g>
		<radialGradient id="SVGID_69_" cx="-30.9565" cy="117.4783" r="318.1177" gradientUnits="userSpaceOnUse">
			<stop  offset="0" style="stop-color:#F7E17B"/>
			<stop  offset="1" style="stop-color:#B8A218"/>
		</radialGradient>
		<path class="st68" d="M45.77,325.74c0,0,12.69,14.1,28.55,0.64C76.45,324.58,61.38,312.51,45.77,325.74z"/>
		<radialGradient id="SVGID_70_" cx="-30.9565" cy="117.4783" r="318.1177" gradientUnits="userSpaceOnUse">
			<stop  offset="0" style="stop-color:#F7E17B"/>
			<stop  offset="1" style="stop-color:#B8A218"/>
		</radialGradient>
		<path class="st69" d="M74.35,296.42c0,0,14.59,12.12,1.78,28.5C74.41,327.12,61.75,312.54,74.35,296.42z"/>
	</g>
	<g>
		<radialGradient id="SVGID_71_" cx="-30.9565" cy="117.4783" r="318.1177" gradientUnits="userSpaceOnUse">
			<stop  offset="0" style="stop-color:#F7E17B"/>
			<stop  offset="1" style="stop-color:#B8A218"/>
		</radialGradient>
		<path class="st70" d="M30.91,304.11c0,0,10.73,15.64,28.22,4.38C61.47,306.98,48.11,293.04,30.91,304.11z"/>
		<radialGradient id="SVGID_72_" cx="-30.9565" cy="117.4783" r="318.1177" gradientUnits="userSpaceOnUse">
			<stop  offset="0" style="stop-color:#F7E17B"/>
			<stop  offset="1" style="stop-color:#B8A218"/>
		</radialGradient>
		<path class="st71" d="M63.09,278.8c0,0,12.88,13.93-1.98,28.49C59.12,309.24,48.49,293.13,63.09,278.8z"/>
	</g>
	<g>
		<radialGradient id="SVGID_73_" cx="-30.9565" cy="117.4783" r="318.1177" gradientUnits="userSpaceOnUse">
			<stop  offset="0" style="stop-color:#F7E17B"/>
			<stop  offset="1" style="stop-color:#B8A218"/>
		</radialGradient>
		<path class="st72" d="M20.31,280.12c0,0,7.87,17.26,27.04,9.18C49.92,288.23,39.17,272.19,20.31,280.12z"/>
		<radialGradient id="SVGID_74_" cx="-30.9565" cy="117.4783" r="318.1177" gradientUnits="userSpaceOnUse">
			<stop  offset="0" style="stop-color:#F7E17B"/>
			<stop  offset="1" style="stop-color:#B8A218"/>
		</radialGradient>
		<path class="st73" d="M56.38,260.75c0,0,10.28,15.94-6.87,27.72C47.21,290.04,39.52,272.33,56.38,260.75z"/>
	</g>
	<g>
		<radialGradient id="SVGID_75_" cx="-30.9565" cy="117.4783" r="318.1177" gradientUnits="userSpaceOnUse">
			<stop  offset="0" style="stop-color:#F7E17B"/>
			<stop  offset="1" style="stop-color:#B8A218"/>
		</radialGradient>
		<path class="st74" d="M13.11,254.72c0,0,4.93,18.32,25.17,13.5C40.99,267.58,33.01,249.99,13.11,254.72z"/>
		<radialGradient id="SVGID_76_" cx="-30.9565" cy="117.4783" r="318.1177" gradientUnits="userSpaceOnUse">
			<stop  offset="0" style="stop-color:#F7E17B"/>
			<stop  offset="1" style="stop-color:#B8A218"/>
		</radialGradient>
		<path class="st75" d="M51.87,241.53c0,0,7.52,17.42-11.33,26.22C38.02,268.93,33.34,250.19,51.87,241.53z"/>
	</g>
	<g>
		<radialGradient id="SVGID_77_" cx="-30.9565" cy="117.4783" r="318.1177" gradientUnits="userSpaceOnUse">
			<stop  offset="0" style="stop-color:#F7E17B"/>
			<stop  offset="1" style="stop-color:#B8A218"/>
		</radialGradient>
		<path class="st76" d="M13.77,226.11c0,0-0.07,17.68,19.3,18.32C35.67,244.51,32.82,226.74,13.77,226.11z"/>
		<radialGradient id="SVGID_78_" cx="-30.9565" cy="117.4783" r="318.1177" gradientUnits="userSpaceOnUse">
			<stop  offset="0" style="stop-color:#F7E17B"/>
			<stop  offset="1" style="stop-color:#B8A218"/>
		</radialGradient>
		<path class="st77" d="M51.85,223.77c0,0,2.48,17.5-16.62,20.78C32.67,244.99,33.06,227.01,51.85,223.77z"/>
	</g>
	<g>
		<radialGradient id="SVGID_79_" cx="-30.9565" cy="117.4783" r="318.1177" gradientUnits="userSpaceOnUse">
			<stop  offset="0" style="stop-color:#F7E17B"/>
			<stop  offset="1" style="stop-color:#B8A218"/>
		</radialGradient>
		<path class="st78" d="M13.6,203.94c0,0-1.95,17.57,17.24,20.27C33.41,224.58,32.48,206.61,13.6,203.94z"/>
		<radialGradient id="SVGID_80_" cx="-30.9565" cy="117.4783" r="318.1177" gradientUnits="userSpaceOnUse">
			<stop  offset="0" style="stop-color:#F7E17B"/>
			<stop  offset="1" style="stop-color:#B8A218"/>
		</radialGradient>
		<path class="st79" d="M51.71,205.69c0,0,0.6,17.66-18.74,18.89C30.38,224.74,32.69,206.9,51.71,205.69z"/>
	</g>
	<g>
		<radialGradient id="SVGID_81_" cx="-30.9565" cy="117.4783" r="318.1177" gradientUnits="userSpaceOnUse">
			<stop  offset="0" style="stop-color:#F7E17B"/>
			<stop  offset="1" style="stop-color:#B8A218"/>
		</radialGradient>
		<path class="st80" d="M14.9,184.23c0,0-1.87,16.81,16.5,19.4C33.86,203.97,32.96,186.78,14.9,184.23z"/>
		<radialGradient id="SVGID_82_" cx="-30.9565" cy="117.4783" r="318.1177" gradientUnits="userSpaceOnUse">
			<stop  offset="0" style="stop-color:#F7E17B"/>
			<stop  offset="1" style="stop-color:#B8A218"/>
		</radialGradient>
		<path class="st81" d="M51.37,185.89c0,0,0.57,16.91-17.94,18.08C30.96,204.13,33.16,187.05,51.37,185.89z"/>
	</g>
	<g>
		<radialGradient id="SVGID_83_" cx="-30.9565" cy="117.4783" r="318.1177" gradientUnits="userSpaceOnUse">
			<stop  offset="0" style="stop-color:#F7E17B"/>
			<stop  offset="1" style="stop-color:#B8A218"/>
		</radialGradient>
		<path class="st82" d="M20.09,162.2c0,0-3.56,16.22,14.11,20.65C36.57,183.44,37.47,166.56,20.09,162.2z"/>
		<radialGradient id="SVGID_84_" cx="-30.9565" cy="117.4783" r="318.1177" gradientUnits="userSpaceOnUse">
			<stop  offset="0" style="stop-color:#F7E17B"/>
			<stop  offset="1" style="stop-color:#B8A218"/>
		</radialGradient>
		<path class="st83" d="M55.53,167.6c0,0-1.18,16.57-19.38,15.8C33.72,183.29,37.64,166.85,55.53,167.6z"/>
	</g>
	<g>
		<radialGradient id="SVGID_85_" cx="-30.9565" cy="117.4783" r="318.1177" gradientUnits="userSpaceOnUse">
			<stop  offset="0" style="stop-color:#F7E17B"/>
			<stop  offset="1" style="stop-color:#B8A218"/>
		</radialGradient>
		<path class="st84" d="M28.17,143.43c0,0-5.41,15,10.85,21.4C41.2,165.7,44.16,149.74,28.17,143.43z"/>
		<radialGradient id="SVGID_86_" cx="-30.9565" cy="117.4783" r="318.1177" gradientUnits="userSpaceOnUse">
			<stop  offset="0" style="stop-color:#F7E17B"/>
			<stop  offset="1" style="stop-color:#B8A218"/>
		</radialGradient>
		<path class="st85" d="M61.22,152.98c0,0-3.19,15.62-20.41,12.62C38.51,165.2,44.29,150.04,61.22,152.98z"/>
	</g>
	<g>
		<radialGradient id="SVGID_87_" cx="-30.9565" cy="117.4783" r="318.1177" gradientUnits="userSpaceOnUse">
			<stop  offset="0" style="stop-color:#F7E17B"/>
			<stop  offset="1" style="stop-color:#B8A218"/>
		</radialGradient>
		<path class="st86" d="M38.62,125.75c0,0-6.21,13.4,8.28,20.63C48.84,147.35,52.86,132.87,38.62,125.75z"/>
		<radialGradient id="SVGID_88_" cx="-30.9565" cy="117.4783" r="318.1177" gradientUnits="userSpaceOnUse">
			<stop  offset="0" style="stop-color:#F7E17B"/>
			<stop  offset="1" style="stop-color:#B8A218"/>
		</radialGradient>
		<path class="st87" d="M68.34,137.24c0,0-4.21,14.15-19.86,9.99C46.39,146.68,52.95,133.15,68.34,137.24z"/>
	</g>
	<g>
		<radialGradient id="SVGID_89_" cx="-30.9565" cy="117.4783" r="318.1177" gradientUnits="userSpaceOnUse">
			<stop  offset="0" style="stop-color:#F7E17B"/>
			<stop  offset="1" style="stop-color:#B8A218"/>
		</radialGradient>
		<path class="st88" d="M51.73,110.42c0,0-7.46,11.27,4.65,19.81C58,131.37,63.64,118.82,51.73,110.42z"/>
		<radialGradient id="SVGID_90_" cx="-30.9565" cy="117.4783" r="318.1177" gradientUnits="userSpaceOnUse">
			<stop  offset="0" style="stop-color:#F7E17B"/>
			<stop  offset="1" style="stop-color:#B8A218"/>
		</radialGradient>
		<path class="st89" d="M77.05,124.91c0,0-5.76,12.23-19.35,6.31C55.88,130.42,63.68,119.09,77.05,124.91z"/>
	</g>
	<g>
		<radialGradient id="SVGID_91_" cx="-30.9565" cy="117.4783" r="318.1177" gradientUnits="userSpaceOnUse">
			<stop  offset="0" style="stop-color:#F7E17B"/>
			<stop  offset="1" style="stop-color:#B8A218"/>
		</radialGradient>
		<path class="st90" d="M63.71,100.09c0,0-7.47,9.3,2.48,17.78C67.52,119.01,73.49,108.44,63.71,100.09z"/>
		<radialGradient id="SVGID_92_" cx="-30.9565" cy="117.4783" r="318.1177" gradientUnits="userSpaceOnUse">
			<stop  offset="0" style="stop-color:#F7E17B"/>
			<stop  offset="1" style="stop-color:#B8A218"/>
		</radialGradient>
		<path class="st91" d="M84.78,114.88c0,0-6.05,10.28-17.51,3.97C65.73,118,73.51,108.68,84.78,114.88z"/>
	</g>
	<g>
		<radialGradient id="SVGID_93_" cx="-30.9565" cy="117.4783" r="318.1177" gradientUnits="userSpaceOnUse">
			<stop  offset="0" style="stop-color:#F7E17B"/>
			<stop  offset="1" style="stop-color:#B8A218"/>
		</radialGradient>
		<path class="st92" d="M77.01,92.37c0,0-7.39,6.24-0.78,14.53C77.11,108.01,83.51,100.53,77.01,92.37z"/>
		<radialGradient id="SVGID_94_" cx="-30.9565" cy="117.4783" r="318.1177" gradientUnits="userSpaceOnUse">
			<stop  offset="0" style="stop-color:#F7E17B"/>
			<stop  offset="1" style="stop-color:#B8A218"/>
		</radialGradient>
		<path class="st93" d="M91.49,107.4c0,0-6.41,7.24-14.55,0.45C75.85,106.94,83.48,100.72,91.49,107.4z"/>
	</g>
</g>
<g>
	<g>
		<radialGradient id="SVGID_95_" cx="528.6087" cy="148" r="294.3493" gradientUnits="userSpaceOnUse">
			<stop  offset="0" style="stop-color:#F7E17B"/>
			<stop  offset="1" style="stop-color:#B8A218"/>
		</radialGradient>
		<path class="st94" d="M368.88,378.99c0,0-18.06,5.81-25.01-13.79C342.94,362.58,362.03,359.71,368.88,378.99z"/>
		<radialGradient id="SVGID_96_" cx="528.6087" cy="148" r="294.3493" gradientUnits="userSpaceOnUse">
			<stop  offset="0" style="stop-color:#F7E17B"/>
			<stop  offset="1" style="stop-color:#B8A218"/>
		</radialGradient>
		<path class="st95" d="M358.89,339.29c0,0-18.71,3.15-15.85,23.75C343.42,365.8,361.69,359.55,358.89,339.29z"/>
	</g>
	<radialGradient id="SVGID_97_" cx="528.6087" cy="148" r="294.3493" gradientUnits="userSpaceOnUse">
		<stop  offset="0" style="stop-color:#F7E17B"/>
		<stop  offset="1" style="stop-color:#B8A218"/>
	</radialGradient>
	<path class="st96" d="M271.99,377.03c11.49-4.22,28.57-9.08,49.65-10.75c5.28-0.43,10.72-0.63,16.5-0.65
		c5.83-0.03,11.98-0.54,18.11-1.61c12.32-2.11,24.9-6.46,36.84-12.9c23.91-12.83,45.2-33.95,58.84-59.34
		c6.82-12.67,11.73-26.42,13.99-40.42c2.19-13.92,3.24-27.82,2.79-41.25c-0.42-13.42-2.4-26.36-5.82-38.18
		c-3.35-11.85-8.15-22.54-13.53-31.81c-5.38-9.28-11.39-17.11-17.11-23.66c-5.74-6.54-11.26-11.75-15.92-15.9
		c-2.36-2.04-4.46-3.88-6.37-5.37c-1.89-1.52-3.48-2.82-4.83-3.81c-2.67-2.01-4.09-3.08-4.09-3.08s1.41,1.09,4.05,3.13
		c1.34,1,2.92,2.32,4.78,3.86c1.89,1.51,3.96,3.37,6.29,5.44c4.6,4.2,10.05,9.47,15.68,16.06c5.62,6.59,11.5,14.47,16.73,23.76
		c5.23,9.28,9.85,19.94,13.02,31.72c3.24,11.75,5.04,24.58,5.28,37.87c0.28,13.3-0.94,27.04-3.28,40.8
		c-2.39,13.69-7.37,27.1-14.21,39.43c-13.66,24.71-34.79,45.09-58.14,57.24c-11.66,6.1-23.87,10.13-35.72,12.01
		c-5.95,0.96-11.72,1.37-17.41,1.33c-5.75-0.06-11.44,0.08-16.83,0.45c-21.63,1.44-39.25,6.2-51.17,10.41L271.99,377.03z"/>
	<g>
		<radialGradient id="SVGID_98_" cx="528.6087" cy="148" r="294.3493" gradientUnits="userSpaceOnUse">
			<stop  offset="0" style="stop-color:#F7E17B"/>
			<stop  offset="1" style="stop-color:#B8A218"/>
		</radialGradient>
		<path class="st97" d="M391.19,373.22c0,0-17.73,6.75-25.7-12.46C364.43,358.18,383.34,354.32,391.19,373.22z"/>
		<radialGradient id="SVGID_99_" cx="528.6157" cy="148" r="294.3539" gradientUnits="userSpaceOnUse">
			<stop  offset="0" style="stop-color:#F7E17B"/>
			<stop  offset="1" style="stop-color:#B8A218"/>
		</radialGradient>
		<path class="st98" d="M379.13,334.09c0,0-18.52,4.13-14.59,24.55C365.07,361.38,382.99,354.18,379.13,334.09z"/>
	</g>
	<g>
		<radialGradient id="SVGID_100_" cx="528.6087" cy="148" r="294.3493" gradientUnits="userSpaceOnUse">
			<stop  offset="0" style="stop-color:#F7E17B"/>
			<stop  offset="1" style="stop-color:#B8A218"/>
		</radialGradient>
		<path class="st99" d="M414.7,361.82c0,0-16.64,9.1-27.15-8.84C386.13,350.57,404.35,344.17,414.7,361.82z"/>
		<radialGradient id="SVGID_101_" cx="528.6087" cy="148" r="294.3493" gradientUnits="userSpaceOnUse">
			<stop  offset="0" style="stop-color:#F7E17B"/>
			<stop  offset="1" style="stop-color:#B8A218"/>
		</radialGradient>
		<path class="st100" d="M397.43,324.7c0,0-17.78,6.61-11.11,26.31C387.21,353.65,403.98,344.08,397.43,324.7z"/>
	</g>
	<g>
		<radialGradient id="SVGID_102_" cx="528.6087" cy="148" r="294.3493" gradientUnits="userSpaceOnUse">
			<stop  offset="0" style="stop-color:#F7E17B"/>
			<stop  offset="1" style="stop-color:#B8A218"/>
		</radialGradient>
		<path class="st101" d="M436.42,344.35c0,0-14.39,12.37-28.4-3C406.14,339.29,422.62,329.23,436.42,344.35z"/>
		<radialGradient id="SVGID_103_" cx="528.6087" cy="148" r="294.3493" gradientUnits="userSpaceOnUse">
			<stop  offset="0" style="stop-color:#F7E17B"/>
			<stop  offset="1" style="stop-color:#B8A218"/>
		</radialGradient>
		<path class="st102" d="M411.8,311.63c0,0-16.02,10.17-5.39,28.04C407.83,342.07,422.24,329.22,411.8,311.63z"/>
	</g>
	<g>
		<radialGradient id="SVGID_104_" cx="528.6087" cy="148" r="294.3493" gradientUnits="userSpaceOnUse">
			<stop  offset="0" style="stop-color:#F7E17B"/>
			<stop  offset="1" style="stop-color:#B8A218"/>
		</radialGradient>
		<path class="st103" d="M454.23,325.74c0,0-12.69,14.1-28.55,0.64C423.55,324.58,438.62,312.51,454.23,325.74z"/>
		<radialGradient id="SVGID_105_" cx="528.6087" cy="148" r="294.3493" gradientUnits="userSpaceOnUse">
			<stop  offset="0" style="stop-color:#F7E17B"/>
			<stop  offset="1" style="stop-color:#B8A218"/>
		</radialGradient>
		<path class="st104" d="M425.65,296.42c0,0-14.59,12.12-1.78,28.5C425.59,327.12,438.25,312.54,425.65,296.42z"/>
	</g>
	<g>
		<radialGradient id="SVGID_106_" cx="528.6087" cy="148" r="294.3493" gradientUnits="userSpaceOnUse">
			<stop  offset="0" style="stop-color:#F7E17B"/>
			<stop  offset="1" style="stop-color:#B8A218"/>
		</radialGradient>
		<path class="st105" d="M469.09,304.11c0,0-10.73,15.64-28.22,4.38C438.53,306.98,451.89,293.04,469.09,304.11z"/>
		<radialGradient id="SVGID_107_" cx="528.6087" cy="148" r="294.3493" gradientUnits="userSpaceOnUse">
			<stop  offset="0" style="stop-color:#F7E17B"/>
			<stop  offset="1" style="stop-color:#B8A218"/>
		</radialGradient>
		<path class="st106" d="M436.91,278.8c0,0-12.88,13.93,1.98,28.49C440.88,309.24,451.51,293.13,436.91,278.8z"/>
	</g>
	<g>
		<radialGradient id="SVGID_108_" cx="528.6087" cy="148" r="294.3493" gradientUnits="userSpaceOnUse">
			<stop  offset="0" style="stop-color:#F7E17B"/>
			<stop  offset="1" style="stop-color:#B8A218"/>
		</radialGradient>
		<path class="st107" d="M479.69,280.12c0,0-7.87,17.26-27.04,9.18C450.08,288.23,460.83,272.19,479.69,280.12z"/>
		<radialGradient id="SVGID_109_" cx="528.6087" cy="148" r="294.3493" gradientUnits="userSpaceOnUse">
			<stop  offset="0" style="stop-color:#F7E17B"/>
			<stop  offset="1" style="stop-color:#B8A218"/>
		</radialGradient>
		<path class="st108" d="M443.62,260.75c0,0-10.28,15.94,6.87,27.72C452.79,290.04,460.48,272.33,443.62,260.75z"/>
	</g>
	<g>
		<radialGradient id="SVGID_110_" cx="528.6087" cy="148" r="294.3493" gradientUnits="userSpaceOnUse">
			<stop  offset="0" style="stop-color:#F7E17B"/>
			<stop  offset="1" style="stop-color:#B8A218"/>
		</radialGradient>
		<path class="st109" d="M486.89,254.72c0,0-4.93,18.32-25.17,13.5C459.01,267.58,466.99,249.99,486.89,254.72z"/>
		<radialGradient id="SVGID_111_" cx="528.6087" cy="148" r="294.3493" gradientUnits="userSpaceOnUse">
			<stop  offset="0" style="stop-color:#F7E17B"/>
			<stop  offset="1" style="stop-color:#B8A218"/>
		</radialGradient>
		<path class="st110" d="M448.13,241.53c0,0-7.52,17.42,11.33,26.22C461.98,268.93,466.66,250.19,448.13,241.53z"/>
	</g>
	<g>
		<radialGradient id="SVGID_112_" cx="528.6087" cy="148" r="294.3493" gradientUnits="userSpaceOnUse">
			<stop  offset="0" style="stop-color:#F7E17B"/>
			<stop  offset="1" style="stop-color:#B8A218"/>
		</radialGradient>
		<path class="st111" d="M486.23,226.11c0,0,0.07,17.68-19.3,18.32C464.33,244.51,467.18,226.74,486.23,226.11z"/>
		<radialGradient id="SVGID_113_" cx="528.6087" cy="148" r="294.3493" gradientUnits="userSpaceOnUse">
			<stop  offset="0" style="stop-color:#F7E17B"/>
			<stop  offset="1" style="stop-color:#B8A218"/>
		</radialGradient>
		<path class="st112" d="M448.15,223.77c0,0-2.48,17.5,16.62,20.78C467.33,244.99,466.94,227.01,448.15,223.77z"/>
	</g>
	<g>
		<radialGradient id="SVGID_114_" cx="528.6087" cy="148" r="294.3493" gradientUnits="userSpaceOnUse">
			<stop  offset="0" style="stop-color:#F7E17B"/>
			<stop  offset="1" style="stop-color:#B8A218"/>
		</radialGradient>
		<path class="st113" d="M486.4,203.94c0,0,1.95,17.57-17.24,20.27C466.59,224.58,467.52,206.61,486.4,203.94z"/>
		<radialGradient id="SVGID_115_" cx="528.6087" cy="148" r="294.3493" gradientUnits="userSpaceOnUse">
			<stop  offset="0" style="stop-color:#F7E17B"/>
			<stop  offset="1" style="stop-color:#B8A218"/>
		</radialGradient>
		<path class="st114" d="M448.29,205.69c0,0-0.6,17.66,18.74,18.89C469.62,224.74,467.31,206.9,448.29,205.69z"/>
	</g>
	<g>
		<radialGradient id="SVGID_116_" cx="528.6087" cy="148" r="294.3493" gradientUnits="userSpaceOnUse">
			<stop  offset="0" style="stop-color:#F7E17B"/>
			<stop  offset="1" style="stop-color:#B8A218"/>
		</radialGradient>
		<path class="st115" d="M485.1,184.23c0,0,1.87,16.81-16.5,19.4C466.14,203.97,467.04,186.78,485.1,184.23z"/>
		<radialGradient id="SVGID_117_" cx="528.6087" cy="148" r="294.3493" gradientUnits="userSpaceOnUse">
			<stop  offset="0" style="stop-color:#F7E17B"/>
			<stop  offset="1" style="stop-color:#B8A218"/>
		</radialGradient>
		<path class="st116" d="M448.63,185.89c0,0-0.57,16.91,17.94,18.08C469.04,204.13,466.84,187.05,448.63,185.89z"/>
	</g>
	<g>
		<radialGradient id="SVGID_118_" cx="528.6087" cy="148" r="294.3493" gradientUnits="userSpaceOnUse">
			<stop  offset="0" style="stop-color:#F7E17B"/>
			<stop  offset="1" style="stop-color:#B8A218"/>
		</radialGradient>
		<path class="st117" d="M479.91,162.2c0,0,3.56,16.22-14.11,20.65C463.43,183.44,462.53,166.56,479.91,162.2z"/>
		<radialGradient id="SVGID_119_" cx="528.6087" cy="148" r="294.3493" gradientUnits="userSpaceOnUse">
			<stop  offset="0" style="stop-color:#F7E17B"/>
			<stop  offset="1" style="stop-color:#B8A218"/>
		</radialGradient>
		<path class="st118" d="M444.47,167.6c0,0,1.18,16.57,19.38,15.8C466.28,183.29,462.36,166.85,444.47,167.6z"/>
	</g>
	<g>
		<radialGradient id="SVGID_120_" cx="528.6087" cy="148" r="294.3493" gradientUnits="userSpaceOnUse">
			<stop  offset="0" style="stop-color:#F7E17B"/>
			<stop  offset="1" style="stop-color:#B8A218"/>
		</radialGradient>
		<path class="st119" d="M471.83,143.43c0,0,5.41,15-10.85,21.4C458.8,165.7,455.84,149.74,471.83,143.43z"/>
		<radialGradient id="SVGID_121_" cx="528.6087" cy="148" r="294.3493" gradientUnits="userSpaceOnUse">
			<stop  offset="0" style="stop-color:#F7E17B"/>
			<stop  offset="1" style="stop-color:#B8A218"/>
		</radialGradient>
		<path class="st120" d="M438.78,152.98c0,0,3.19,15.62,20.41,12.62C461.49,165.2,455.71,150.04,438.78,152.98z"/>
	</g>
	<g>
		<radialGradient id="SVGID_122_" cx="528.6087" cy="148" r="294.3493" gradientUnits="userSpaceOnUse">
			<stop  offset="0" style="stop-color:#F7E17B"/>
			<stop  offset="1" style="stop-color:#B8A218"/>
		</radialGradient>
		<path class="st121" d="M461.38,125.75c0,0,6.21,13.4-8.28,20.63C451.16,147.35,447.14,132.87,461.38,125.75z"/>
		<radialGradient id="SVGID_123_" cx="528.6087" cy="148" r="294.3493" gradientUnits="userSpaceOnUse">
			<stop  offset="0" style="stop-color:#F7E17B"/>
			<stop  offset="1" style="stop-color:#B8A218"/>
		</radialGradient>
		<path class="st122" d="M431.66,137.24c0,0,4.21,14.15,19.86,9.99C453.61,146.68,447.05,133.15,431.66,137.24z"/>
	</g>
	<g>
		<radialGradient id="SVGID_124_" cx="528.6087" cy="148" r="294.3493" gradientUnits="userSpaceOnUse">
			<stop  offset="0" style="stop-color:#F7E17B"/>
			<stop  offset="1" style="stop-color:#B8A218"/>
		</radialGradient>
		<path class="st123" d="M448.27,110.42c0,0,7.46,11.27-4.65,19.81C442,131.37,436.36,118.82,448.27,110.42z"/>
		<radialGradient id="SVGID_125_" cx="528.6087" cy="148" r="294.3493" gradientUnits="userSpaceOnUse">
			<stop  offset="0" style="stop-color:#F7E17B"/>
			<stop  offset="1" style="stop-color:#B8A218"/>
		</radialGradient>
		<path class="st124" d="M422.95,124.91c0,0,5.76,12.23,19.35,6.31C444.12,130.42,436.32,119.09,422.95,124.91z"/>
	</g>
	<g>
		<radialGradient id="SVGID_126_" cx="528.6087" cy="148" r="294.3493" gradientUnits="userSpaceOnUse">
			<stop  offset="0" style="stop-color:#F7E17B"/>
			<stop  offset="1" style="stop-color:#B8A218"/>
		</radialGradient>
		<path class="st125" d="M436.29,100.09c0,0,7.47,9.3-2.48,17.78C432.48,119.01,426.51,108.44,436.29,100.09z"/>
		<radialGradient id="SVGID_127_" cx="528.6087" cy="148" r="294.3493" gradientUnits="userSpaceOnUse">
			<stop  offset="0" style="stop-color:#F7E17B"/>
			<stop  offset="1" style="stop-color:#B8A218"/>
		</radialGradient>
		<path class="st126" d="M415.22,114.88c0,0,6.05,10.28,17.51,3.97C434.27,118,426.49,108.68,415.22,114.88z"/>
	</g>
	<g>
		<radialGradient id="SVGID_128_" cx="528.6087" cy="148" r="294.3493" gradientUnits="userSpaceOnUse">
			<stop  offset="0" style="stop-color:#F7E17B"/>
			<stop  offset="1" style="stop-color:#B8A218"/>
		</radialGradient>
		<path class="st127" d="M422.99,92.37c0,0,7.39,6.24,0.78,14.53C422.89,108.01,416.49,100.53,422.99,92.37z"/>
		<radialGradient id="SVGID_129_" cx="528.6087" cy="148" r="294.3493" gradientUnits="userSpaceOnUse">
			<stop  offset="0" style="stop-color:#F7E17B"/>
			<stop  offset="1" style="stop-color:#B8A218"/>
		</radialGradient>
		<path class="st128" d="M408.51,107.4c0,0,6.41,7.24,14.55,0.45C424.15,106.94,416.52,100.72,408.51,107.4z"/>
	</g>
</g>
</svg>
