<svg width="423" height="104" viewBox="0 0 423 104" fill="none" xmlns="http://www.w3.org/2000/svg">
<path fill-rule="evenodd" clip-rule="evenodd" d="M196.223 83.9333C196.223 79.5519 199.8 76 204.213 76H206.406C207.272 76 207.973 76.6964 207.973 77.5556V78.9556C207.973 79.8147 207.272 80.5111 206.406 80.5111H204.213C202.396 80.5111 200.453 82.1292 200.453 83.9333V86.1111C200.453 86.9702 199.751 87.6667 198.886 87.6667H197.789C196.924 87.6667 196.223 86.9702 196.223 86.1111V83.9333Z" fill="white"/>
<path fill-rule="evenodd" clip-rule="evenodd" d="M225.05 96.0667C225.05 100.448 221.473 104 217.06 104H214.867C214.001 104 213.3 103.304 213.3 102.444V101.044C213.3 100.185 214.001 99.4889 214.867 99.4889H217.06C218.877 99.4889 220.82 97.8708 220.82 96.0667V93.8889C220.82 93.0298 221.522 92.3333 222.387 92.3333H223.484C224.349 92.3333 225.05 93.0298 225.05 93.8889V96.0667Z" fill="white"/>
<path fill-rule="evenodd" clip-rule="evenodd" d="M217.06 76C221.473 76 225.05 79.5519 225.05 83.9333V86.1111C225.05 86.9702 224.349 87.6667 223.484 87.6667H222.073C221.208 87.6667 220.507 86.9702 220.507 86.1111V83.9333C220.507 82.1292 218.877 80.2 217.06 80.2H214.867C214.001 80.2 213.3 79.5036 213.3 78.6444V77.5556C213.3 76.6964 214.001 76 214.867 76L217.06 76Z" fill="white"/>
<path fill-rule="evenodd" clip-rule="evenodd" d="M204.213 104C199.8 104 196.223 100.448 196.223 96.0667V93.8889C196.223 93.0298 196.924 92.3333 197.789 92.3333H199.199C200.065 92.3333 200.766 93.0298 200.766 93.8889V96.0667C200.766 97.8708 202.396 99.8 204.213 99.8L206.406 99.8C207.272 99.8 207.973 100.496 207.973 101.356V102.444C207.973 103.304 207.272 104 206.406 104L204.213 104Z" fill="white"/>
<path d="M254.683 87.2187C254.167 83.0584 250.925 80.6659 246.633 80.6659C241.734 80.6659 237.994 84.0259 237.994 89.919C237.994 95.7946 241.67 99.1721 246.633 99.1721C251.387 99.1721 254.258 96.1024 254.683 92.7864L250.717 92.7688C250.346 94.6951 248.788 95.8034 246.696 95.8034C243.88 95.8034 241.969 93.7716 241.969 89.919C241.969 86.172 243.853 84.0347 246.723 84.0347C248.869 84.0347 250.418 85.2397 250.717 87.2187H254.683Z" fill="white"/>
<path d="M261.28 80.9122H257.423V98.9258H261.28V80.9122Z" fill="white"/>
<path d="M264.371 98.9258H268.228V85.4156H264.371V98.9258ZM266.308 83.6741C267.458 83.6741 268.4 82.8209 268.4 81.7742C268.4 80.7363 267.458 79.8831 266.308 79.8831C265.167 79.8831 264.226 80.7363 264.226 81.7742C264.226 82.8209 265.167 83.6741 266.308 83.6741Z" fill="white"/>
<path d="M271.318 103.992H275.176V96.7621H275.294C275.828 97.888 276.996 99.1457 279.242 99.1457C282.412 99.1457 284.884 96.7093 284.884 92.1883C284.884 87.5442 282.303 85.2397 279.251 85.2397C276.924 85.2397 275.81 86.5854 275.294 87.6849H275.122V85.4156H271.318V103.992ZM275.095 92.1707C275.095 89.7607 276.145 88.2214 278.02 88.2214C279.93 88.2214 280.945 89.8311 280.945 92.1707C280.945 94.528 279.912 96.164 278.02 96.164C276.163 96.164 275.095 94.5808 275.095 92.1707Z" fill="white"/>
<path d="M294.103 98.9258C299.753 98.9258 303.176 95.5307 303.176 89.9014C303.176 84.2898 299.753 80.9122 294.157 80.9122H287.528V98.9258H294.103ZM291.449 95.6626V84.1754H293.949C297.426 84.1754 299.264 85.8994 299.264 89.9014C299.264 93.9211 297.426 95.6626 293.94 95.6626H291.449Z" fill="white"/>
<path d="M306.009 98.9258H309.866V91.2824C309.866 89.62 311.116 88.4765 312.818 88.4765C313.353 88.4765 314.086 88.5645 314.448 88.6788V85.354C314.104 85.2749 313.624 85.2221 313.235 85.2221C311.677 85.2221 310.401 86.1017 309.893 87.7729H309.749V85.4156H306.009V98.9258Z" fill="white"/>
<path d="M322.08 99.1897C326.3 99.1897 328.926 96.3839 328.926 92.2235C328.926 88.0367 326.3 85.2397 322.08 85.2397C317.86 85.2397 315.234 88.0367 315.234 92.2235C315.234 96.3839 317.86 99.1897 322.08 99.1897ZM322.098 96.2871C320.151 96.2871 319.155 94.5544 319.155 92.1971C319.155 89.8399 320.151 88.0983 322.098 88.0983C324.009 88.0983 325.005 89.8399 325.005 92.1971C325.005 94.5544 324.009 96.2871 322.098 96.2871Z" fill="white"/>
<path d="M331.435 103.992H335.292V96.7621H335.41C335.944 97.888 337.112 99.1457 339.358 99.1457C342.528 99.1457 345 96.7093 345 92.1883C345 87.5442 342.419 85.2397 339.367 85.2397C337.04 85.2397 335.926 86.5854 335.41 87.6849H335.238V85.4156H331.435V103.992ZM335.211 92.1707C335.211 89.7607 336.261 88.2214 338.136 88.2214C340.047 88.2214 341.061 89.8311 341.061 92.1707C341.061 94.528 340.028 96.164 338.136 96.164C336.279 96.164 335.211 94.5808 335.211 92.1707Z" fill="white"/>
<path d="M147 98.2378H150.224V96.1093H150.414C150.93 97.0944 152.008 98.4753 154.398 98.4753C157.677 98.4753 160.131 95.9509 160.131 91.5003C160.131 86.9969 157.604 84.5517 154.389 84.5517C151.935 84.5517 150.912 85.9854 150.414 86.9617H150.278V80.2242H147V98.2378ZM150.215 91.4827C150.215 88.8616 151.374 87.164 153.484 87.164C155.666 87.164 156.789 88.9671 156.789 91.4827C156.789 94.0159 155.648 95.863 153.484 95.863C151.392 95.863 150.215 94.1038 150.215 91.4827Z" fill="white"/>
<path d="M164.482 103.304C167.036 103.304 168.512 102.029 169.3 99.8738L174.887 84.7452L171.382 84.7276L168.168 94.9306H168.023L164.817 84.7276H161.34L166.384 98.5193L166.103 99.2493C165.496 100.789 164.536 100.894 163.106 100.49L162.345 102.97C162.789 103.146 163.585 103.304 164.482 103.304Z" fill="white"/>
<path d="M43.9714 74.2772L75.26 40.1758H116.978L77.1563 97.9588H36.3862L43.9714 74.2772Z" fill="#BDFF01"/>
<path d="M43.9714 74.2772L75.26 40.1758H116.978L77.1563 97.9588H36.3862L43.9714 74.2772Z" fill="black"/>
<path d="M43.9714 74.2772L75.26 40.1758H116.978L77.1563 97.9588H36.3862L43.9714 74.2772Z" stroke="white"/>
<path d="M14.5031 80.0106L2.51695 82.0547C1.1374 82.2911 0.207235 83.6015 0.444434 84.9868C0.555328 85.6764 0.943141 86.255 1.46992 86.6284C1.99927 87.0086 2.67483 87.184 3.36612 87.0706L15.3534 85.0248C16.7318 84.7901 17.6643 83.4764 17.4304 82.0935C17.1971 80.7061 15.8864 79.7794 14.5031 80.0106Z" fill="white"/>
<path d="M89.1681 21.4919C89.729 21.1604 90.1636 20.6136 90.3384 19.9301L93.3597 8.11013C93.7054 6.75243 92.8862 5.36478 91.5347 5.01693C90.1788 4.66939 88.7964 5.48855 88.4517 6.84798L85.4304 18.6679C85.0812 20.0277 85.9018 21.4098 87.2554 21.7611C87.9301 21.9333 88.614 21.8193 89.1681 21.4919Z" fill="white"/>
<path d="M47.2309 26.2531C47.8794 27.4948 49.4107 27.9746 50.6478 27.322C51.8893 26.6705 52.3656 25.1345 51.7187 23.8905L46.0702 13.0855C45.4173 11.8427 43.8899 11.362 42.6449 12.0164C41.4043 12.6718 40.9315 14.205 41.5824 15.4482L47.2309 26.2531Z" fill="white"/>
<path d="M12.9578 47.7382L24.3994 51.8716C25.7131 52.3478 27.1622 51.6646 27.6435 50.3413C28.1185 49.0193 27.4357 47.5651 26.114 47.0881L14.6768 42.9511C13.3594 42.4724 11.9098 43.1596 11.427 44.4787C10.9539 45.8009 11.6401 47.2615 12.9578 47.7382Z" fill="white"/>
<path d="M118.835 37.1838C118.444 36.677 117.836 36.374 117.197 36.374H76.0899C75.7179 36.374 75.3628 36.4774 75.0472 36.6727L74.9754 36.6119L40.3349 73.4088L39.9658 73.8264L40.0123 73.8745C39.9348 74.0104 39.877 74.1506 39.839 74.2964L33.4127 98.3921C33.2507 99.0107 33.3832 99.6818 33.7678 100.19C34.1581 100.697 34.7696 101 35.405 101H76.5154C77.1733 101 77.7566 100.721 78.3625 100.112L112.172 64.1264C112.282 64.0089 112.659 63.4667 112.763 63.0774L119.19 38.9802C119.355 38.363 119.222 37.6948 118.835 37.1838ZM74.9303 96.8547H38.0919L43.4135 76.9068H80.2519L74.9303 96.8547ZM82.3794 72.7618H46.6202L76.9789 40.519H112.734L82.3794 72.7618Z" fill="white"/>
<path d="M167.171 44.6229H161.667C161.594 44.0578 161.443 43.5477 161.216 43.0927C160.988 42.6377 160.687 42.2487 160.313 41.9258C159.939 41.6029 159.495 41.357 158.981 41.1882C158.474 41.0121 157.913 40.924 157.297 40.924C156.203 40.924 155.26 41.1919 154.467 41.7276C153.682 42.2634 153.077 43.0376 152.651 44.0504C152.233 45.0632 152.023 46.2888 152.023 47.7273C152.023 49.2244 152.236 50.4794 152.662 51.4922C153.095 52.4976 153.7 53.2572 154.478 53.771C155.264 54.2773 156.192 54.5305 157.263 54.5305C157.865 54.5305 158.412 54.4535 158.904 54.2994C159.403 54.1452 159.839 53.9214 160.214 53.6278C160.595 53.3269 160.907 52.9637 161.15 52.538C161.399 52.105 161.571 51.617 161.667 51.0739L167.171 51.1069C167.076 52.105 166.786 53.0884 166.301 54.0572C165.824 55.0259 165.168 55.9103 164.331 56.7102C163.494 57.5028 162.474 58.134 161.271 58.6037C160.074 59.0734 158.702 59.3082 157.153 59.3082C155.113 59.3082 153.286 58.8606 151.671 57.9652C150.064 57.0625 148.794 55.7488 147.862 54.0241C146.93 52.2995 146.464 50.2005 146.464 47.7273C146.464 45.2467 146.938 43.1441 147.884 41.4194C148.831 39.6947 150.112 38.3847 151.726 37.4893C153.341 36.594 155.15 36.1463 157.153 36.1463C158.518 36.1463 159.781 36.3371 160.94 36.7188C162.1 37.093 163.12 37.6435 164.001 38.37C164.881 39.0893 165.597 39.9736 166.147 41.0231C166.698 42.0726 167.039 43.2725 167.171 44.6229ZM175.672 36.4545V59H170.289V36.4545H175.672ZM187.003 59.3192C185.234 59.3192 183.708 58.9706 182.423 58.2734C181.146 57.5689 180.163 56.5671 179.473 55.2681C178.791 53.9618 178.449 52.4096 178.449 50.6115C178.449 48.8648 178.794 47.3383 179.484 46.032C180.174 44.7183 181.146 43.6982 182.401 42.9716C183.656 42.2377 185.135 41.8707 186.838 41.8707C188.041 41.8707 189.142 42.0579 190.14 42.4322C191.139 42.8065 192.001 43.3606 192.727 44.0945C193.454 44.8284 194.019 45.7347 194.423 46.8136C194.826 47.8851 195.028 49.1143 195.028 50.5014V51.8445H180.332V48.718H190.019C190.012 48.1456 189.876 47.6355 189.612 47.1879C189.348 46.7402 188.985 46.3916 188.522 46.142C188.067 45.8852 187.542 45.7567 186.948 45.7567C186.346 45.7567 185.807 45.8925 185.33 46.1641C184.853 46.4283 184.475 46.7915 184.196 47.2539C183.917 47.7089 183.77 48.2263 183.756 48.8061V51.9876C183.756 52.6774 183.891 53.2829 184.163 53.804C184.434 54.3177 184.82 54.7177 185.319 55.0039C185.818 55.2901 186.412 55.4332 187.102 55.4332C187.579 55.4332 188.012 55.3672 188.401 55.2351C188.79 55.103 189.124 54.9085 189.403 54.6516C189.682 54.3948 189.891 54.0792 190.03 53.7049L194.973 53.848C194.768 54.9562 194.316 55.9213 193.619 56.7433C192.929 57.5579 192.023 58.1927 190.9 58.6477C189.777 59.0954 188.478 59.3192 187.003 59.3192ZM202.544 59.2862C201.465 59.2862 200.508 59.1064 199.671 58.7468C198.842 58.3799 198.185 57.8294 197.701 57.0955C197.224 56.3543 196.985 55.4259 196.985 54.3104C196.985 53.371 197.15 52.5784 197.48 51.9325C197.811 51.2867 198.266 50.762 198.845 50.3583C199.425 49.9547 200.093 49.6501 200.849 49.4446C201.605 49.2318 202.412 49.0887 203.271 49.0153C204.232 48.9272 205.007 48.8355 205.594 48.7401C206.181 48.6373 206.606 48.4942 206.871 48.3107C207.142 48.1199 207.278 47.852 207.278 47.5071V47.4521C207.278 46.887 207.083 46.4503 206.695 46.142C206.306 45.8338 205.781 45.6797 205.12 45.6797C204.408 45.6797 203.836 45.8338 203.403 46.142C202.97 46.4503 202.695 46.8759 202.577 47.419L197.612 47.2429C197.759 46.2154 198.137 45.2981 198.746 44.4908C199.363 43.6761 200.207 43.0376 201.278 42.5753C202.357 42.1056 203.652 41.8707 205.164 41.8707C206.243 41.8707 207.238 41.9992 208.148 42.256C209.058 42.5056 209.85 42.8725 210.525 43.3569C211.201 43.8339 211.722 44.421 212.089 45.1183C212.463 45.8155 212.65 46.6117 212.65 47.5071V59H207.586V56.6442H207.454C207.153 57.2166 206.768 57.701 206.298 58.0973C205.836 58.4936 205.289 58.7908 204.658 58.989C204.034 59.1871 203.33 59.2862 202.544 59.2862ZM204.207 55.7635C204.786 55.7635 205.307 55.6461 205.77 55.4112C206.239 55.1764 206.614 54.8535 206.893 54.4425C207.172 54.0241 207.311 53.5398 207.311 52.9893V51.3821C207.157 51.4628 206.97 51.5362 206.75 51.6023C206.537 51.6683 206.302 51.7307 206.045 51.7894C205.788 51.8481 205.524 51.8995 205.252 51.9435C204.981 51.9876 204.72 52.0279 204.471 52.0646C203.964 52.1454 203.531 52.2701 203.172 52.4389C202.82 52.6077 202.548 52.8279 202.357 53.0994C202.174 53.3636 202.082 53.6792 202.082 54.0462C202.082 54.6039 202.28 55.0296 202.676 55.3232C203.08 55.6167 203.59 55.7635 204.207 55.7635ZM221.325 49.3565V59H215.942V42.0909H221.061V45.1953H221.248C221.622 44.1605 222.261 43.3495 223.163 42.7624C224.066 42.168 225.141 41.8707 226.389 41.8707C227.578 41.8707 228.609 42.1386 229.482 42.6744C230.363 43.2028 231.045 43.944 231.53 44.8981C232.021 45.8448 232.264 46.953 232.256 48.2227V59H226.873V49.2795C226.88 48.3401 226.642 47.6062 226.158 47.0778C225.681 46.5494 225.016 46.2852 224.165 46.2852C223.6 46.2852 223.101 46.4099 222.668 46.6594C222.242 46.9016 221.912 47.2502 221.677 47.7053C221.45 48.1603 221.332 48.7107 221.325 49.3565ZM246.499 51.7013V42.0909H251.871V59H246.741V55.8516H246.565C246.19 56.8864 245.552 57.7083 244.649 58.3175C243.754 58.9193 242.671 59.2202 241.402 59.2202C240.249 59.2202 239.237 58.956 238.363 58.4276C237.49 57.8991 236.811 57.1616 236.327 56.2148C235.842 55.2608 235.596 54.1452 235.589 52.8683V42.0909H240.972V51.8114C240.98 52.7288 241.222 53.4517 241.699 53.9801C242.176 54.5085 242.825 54.7727 243.647 54.7727C244.183 54.7727 244.664 54.6553 245.089 54.4205C245.522 54.1783 245.864 53.8297 246.113 53.3746C246.37 52.9123 246.499 52.3545 246.499 51.7013ZM255.297 65.3409V42.0909H260.625V44.9861H260.79C261.011 44.4724 261.322 43.977 261.726 43.5C262.137 43.023 262.658 42.634 263.289 42.3331C263.928 42.0249 264.691 41.8707 265.579 41.8707C266.753 41.8707 267.851 42.179 268.871 42.7955C269.898 43.4119 270.727 44.3623 271.359 45.6467C271.99 46.931 272.305 48.5676 272.305 50.5565C272.305 52.4719 272.001 54.0755 271.392 55.3672C270.79 56.6589 269.975 57.6276 268.948 58.2734C267.928 58.9193 266.794 59.2422 265.546 59.2422C264.695 59.2422 263.957 59.1027 263.333 58.8239C262.71 58.545 262.185 58.178 261.759 57.723C261.341 57.268 261.018 56.7799 260.79 56.2589H260.68V65.3409H255.297ZM260.57 50.5455C260.57 51.4555 260.691 52.2481 260.934 52.9233C261.183 53.5985 261.539 54.1232 262.001 54.4975C262.471 54.8645 263.032 55.0479 263.686 55.0479C264.346 55.0479 264.908 54.8645 265.37 54.4975C265.832 54.1232 266.181 53.5985 266.416 52.9233C266.658 52.2481 266.779 51.4555 266.779 50.5455C266.779 49.6354 266.658 48.8465 266.416 48.1786C266.181 47.5108 265.832 46.9934 265.37 46.6264C264.915 46.2595 264.353 46.076 263.686 46.076C263.025 46.076 262.464 46.2558 262.001 46.6154C261.539 46.975 261.183 47.4888 260.934 48.1566C260.691 48.8245 260.57 49.6207 260.57 50.5455ZM278.154 59.3192C277.361 59.3192 276.682 59.0404 276.117 58.4826C275.559 57.9248 275.284 57.2496 275.291 56.457C275.284 55.6791 275.559 55.0149 276.117 54.4645C276.682 53.9067 277.361 53.6278 278.154 53.6278C278.902 53.6278 279.563 53.9067 280.135 54.4645C280.715 55.0149 281.008 55.6791 281.016 56.457C281.008 56.9854 280.869 57.4661 280.597 57.8991C280.333 58.3321 279.985 58.6771 279.552 58.9339C279.126 59.1908 278.66 59.3192 278.154 59.3192ZM284.572 65.3409V42.0909H289.9V44.9861H290.065C290.285 44.4724 290.597 43.977 291.001 43.5C291.412 43.023 291.933 42.634 292.564 42.3331C293.202 42.0249 293.965 41.8707 294.854 41.8707C296.028 41.8707 297.125 42.179 298.145 42.7955C299.173 43.4119 300.002 44.3623 300.633 45.6467C301.264 46.931 301.58 48.5676 301.58 50.5565C301.58 52.4719 301.275 54.0755 300.666 55.3672C300.064 56.6589 299.25 57.6276 298.222 58.2734C297.202 58.9193 296.068 59.2422 294.82 59.2422C293.969 59.2422 293.232 59.1027 292.608 58.8239C291.984 58.545 291.459 58.178 291.034 57.723C290.615 57.268 290.292 56.7799 290.065 56.2589H289.955V65.3409H284.572ZM289.845 50.5455C289.845 51.4555 289.966 52.2481 290.208 52.9233C290.457 53.5985 290.813 54.1232 291.276 54.4975C291.745 54.8645 292.307 55.0479 292.96 55.0479C293.621 55.0479 294.182 54.8645 294.644 54.4975C295.107 54.1232 295.455 53.5985 295.69 52.9233C295.932 52.2481 296.053 51.4555 296.053 50.5455C296.053 49.6354 295.932 48.8465 295.69 48.1786C295.455 47.5108 295.107 46.9934 294.644 46.6264C294.189 46.2595 293.628 46.076 292.96 46.076C292.3 46.076 291.738 46.2558 291.276 46.6154C290.813 46.975 290.457 47.4888 290.208 48.1566C289.966 48.8245 289.845 49.6207 289.845 50.5455ZM304.401 59V42.0909H309.784V59H304.401ZM307.098 40.1204C306.342 40.1204 305.692 39.8709 305.149 39.3718C304.606 38.8654 304.335 38.2563 304.335 37.5444C304.335 36.8398 304.606 36.238 305.149 35.739C305.692 35.2326 306.342 34.9794 307.098 34.9794C307.861 34.9794 308.511 35.2326 309.046 35.739C309.589 36.238 309.861 36.8398 309.861 37.5444C309.861 38.2563 309.589 38.8654 309.046 39.3718C308.511 39.8709 307.861 40.1204 307.098 40.1204ZM321.103 59.3192C319.32 59.3192 317.79 58.9523 316.513 58.2184C315.243 57.4845 314.267 56.4644 313.585 55.158C312.902 53.8443 312.561 52.3252 312.561 50.6005C312.561 48.8685 312.902 47.3493 313.585 46.043C314.274 44.7293 315.254 43.7055 316.524 42.9716C317.801 42.2377 319.324 41.8707 321.092 41.8707C322.656 41.8707 324.017 42.1533 325.176 42.7184C326.343 43.2835 327.253 44.0835 327.907 45.1183C328.567 46.1457 328.916 47.353 328.952 48.7401H323.922C323.819 47.8741 323.525 47.1952 323.041 46.7035C322.564 46.2118 321.94 45.9659 321.169 45.9659C320.546 45.9659 319.999 46.142 319.529 46.4943C319.059 46.8393 318.692 47.353 318.428 48.0355C318.171 48.7107 318.043 49.5473 318.043 50.5455C318.043 51.5436 318.171 52.3875 318.428 53.0774C318.692 53.7599 319.059 54.2773 319.529 54.6296C319.999 54.9746 320.546 55.147 321.169 55.147C321.668 55.147 322.109 55.0406 322.49 54.8278C322.879 54.6149 323.199 54.303 323.448 53.892C323.698 53.4737 323.855 52.9673 323.922 52.3729H328.952C328.901 53.7673 328.552 54.9856 327.907 56.0277C327.268 57.0698 326.369 57.8808 325.21 58.4606C324.057 59.033 322.689 59.3192 321.103 59.3192ZM341.252 42.0909V46.054H330.584V42.0909H341.252ZM332.819 38.0398H338.202V53.6829C338.202 54.0131 338.254 54.281 338.356 54.4865C338.467 54.6847 338.624 54.8278 338.83 54.9158C339.035 54.9966 339.281 55.0369 339.567 55.0369C339.773 55.0369 339.989 55.0186 340.217 54.9819C340.452 54.9379 340.628 54.9012 340.745 54.8718L341.56 58.7578C341.303 58.8312 340.94 58.9229 340.47 59.033C340.008 59.1431 339.454 59.2128 338.808 59.2422C337.545 59.3009 336.463 59.1541 335.56 58.8018C334.665 58.4422 333.979 57.8845 333.502 57.1286C333.032 56.3726 332.804 55.4222 332.819 54.2773V38.0398ZM354.908 51.7013V42.0909H360.28V59H355.15V55.8516H354.974C354.6 56.8864 353.961 57.7083 353.058 58.3175C352.163 58.9193 351.08 59.2202 349.811 59.2202C348.659 59.2202 347.646 58.956 346.772 58.4276C345.899 57.8991 345.22 57.1616 344.736 56.2148C344.252 55.2608 344.006 54.1452 343.998 52.8683V42.0909H349.381V51.8114C349.389 52.7288 349.631 53.4517 350.108 53.9801C350.585 54.5085 351.235 54.7727 352.057 54.7727C352.592 54.7727 353.073 54.6553 353.499 54.4205C353.932 54.1783 354.273 53.8297 354.522 53.3746C354.779 52.9123 354.908 52.3545 354.908 51.7013ZM363.706 59V42.0909H368.935V45.1733H369.112C369.42 44.0578 369.922 43.2285 370.62 42.6854C371.317 42.1349 372.128 41.8597 373.053 41.8597C373.302 41.8597 373.559 41.8781 373.823 41.9148C374.087 41.9441 374.333 41.9918 374.561 42.0579V46.7365C374.304 46.6484 373.966 46.5787 373.548 46.5273C373.137 46.476 372.77 46.4503 372.447 46.4503C371.809 46.4503 371.232 46.5934 370.719 46.8796C370.212 47.1585 369.812 47.5511 369.519 48.0575C369.233 48.5566 369.089 49.1437 369.089 49.8189V59H363.706ZM383.78 59.3192C382.012 59.3192 380.485 58.9706 379.201 58.2734C377.924 57.5689 376.94 56.5671 376.251 55.2681C375.568 53.9618 375.227 52.4096 375.227 50.6115C375.227 48.8648 375.572 47.3383 376.262 46.032C376.951 44.7183 377.924 43.6982 379.179 42.9716C380.434 42.2377 381.913 41.8707 383.615 41.8707C384.819 41.8707 385.92 42.0579 386.918 42.4322C387.916 42.8065 388.778 43.3606 389.505 44.0945C390.231 44.8284 390.796 45.7347 391.2 46.8136C391.604 47.8851 391.806 49.1143 391.806 50.5014V51.8445H377.109V48.718H386.797C386.789 48.1456 386.654 47.6355 386.389 47.1879C386.125 46.7402 385.762 46.3916 385.3 46.142C384.845 45.8852 384.32 45.7567 383.725 45.7567C383.124 45.7567 382.584 45.8925 382.107 46.1641C381.63 46.4283 381.252 46.7915 380.973 47.2539C380.694 47.7089 380.548 48.2263 380.533 48.8061V51.9876C380.533 52.6774 380.669 53.2829 380.94 53.804C381.212 54.3177 381.597 54.7177 382.096 55.0039C382.595 55.2901 383.19 55.4332 383.879 55.4332C384.356 55.4332 384.789 55.3672 385.178 55.2351C385.567 55.103 385.901 54.9085 386.18 54.6516C386.459 54.3948 386.668 54.0792 386.808 53.7049L391.751 53.848C391.545 54.9562 391.094 55.9213 390.396 56.7433C389.707 57.5579 388.8 58.1927 387.677 58.6477C386.555 59.0954 385.256 59.3192 383.78 59.3192ZM409.317 47.2539L404.375 47.386C404.323 47.0337 404.184 46.7218 403.956 46.4503C403.729 46.1714 403.431 45.9549 403.065 45.8008C402.705 45.6393 402.287 45.5586 401.81 45.5586C401.186 45.5586 400.654 45.6834 400.213 45.9329C399.78 46.1824 399.568 46.52 399.575 46.9457C399.568 47.2759 399.7 47.5621 399.971 47.8043C400.25 48.0465 400.745 48.241 401.457 48.3878L404.716 49.0043C406.404 49.3272 407.659 49.8629 408.481 50.6115C409.31 51.3601 409.728 52.3509 409.736 53.5838C409.728 54.7434 409.383 55.7525 408.701 56.6112C408.026 57.4698 407.101 58.1377 405.927 58.6147C404.753 59.0844 403.409 59.3192 401.898 59.3192C399.483 59.3192 397.579 58.8239 396.184 57.8331C394.797 56.835 394.005 55.4993 393.806 53.826L399.123 53.6939C399.241 54.3104 399.545 54.7801 400.037 55.103C400.529 55.4259 401.156 55.5874 401.92 55.5874C402.61 55.5874 403.171 55.4589 403.604 55.2021C404.037 54.9452 404.257 54.6039 404.264 54.1783C404.257 53.7966 404.088 53.4921 403.758 53.2646C403.428 53.0297 402.91 52.8462 402.206 52.7141L399.256 52.1527C397.56 51.8445 396.298 51.2757 395.469 50.4464C394.639 49.6097 394.228 48.5456 394.236 47.2539C394.228 46.1237 394.529 45.1586 395.138 44.3587C395.748 43.5514 396.614 42.9349 397.736 42.5092C398.859 42.0836 400.184 41.8707 401.71 41.8707C404 41.8707 405.806 42.3514 407.127 43.3129C408.448 44.2669 409.178 45.5806 409.317 47.2539Z" fill="white"/>
</svg>
